<svg viewBox="0 0 100 100" xmlns="http://www.w3.org/2000/svg">
  <path d="M 45.00,4.00 L 55.00,4.00 L 55.00,16.00 L 63.00,16.00 L 63.00,24.00 L 55.00,24.00 L 55.00,30.00 L 45.00,30.00 L 45.00,24.00 L 37.00,24.00 L 37.00,16.00 L 45.00,16.00 Z" fill="currentColor" fill-rule="evenodd" />
  <path d="M 50.00,22.00 L 84.00,64.00 L 16.00,64.00 Z M 65.00,52.00 L 64.71,53.76 L 63.86,55.44 L 62.47,57.00 L 60.61,58.36 L 58.33,59.48 L 55.74,60.31 L 52.93,60.83 L 50.00,61.00 L 47.07,60.83 L 44.26,60.31 L 41.67,59.48 L 39.39,58.36 L 37.53,57.00 L 36.14,55.44 L 35.29,53.76 L 35.00,52.00 L 35.29,50.24 L 36.14,48.56 L 37.53,47.00 L 39.39,45.64 L 41.67,44.52 L 44.26,43.69 L 47.07,43.17 L 50.00,43.00 L 52.93,43.17 L 55.74,43.69 L 58.33,44.52 L 60.61,45.64 L 62.47,47.00 L 63.86,48.56 L 64.71,50.24 L 65.00,52.00 Z" fill="currentColor" fill-rule="evenodd" />
  <path d="M 54.20,52.00 L 54.12,53.56 L 53.88,55.06 L 53.49,56.44 L 52.97,57.66 L 52.33,58.65 L 51.61,59.39 L 50.82,59.85 L 50.00,60.00 L 49.18,59.85 L 48.39,59.39 L 47.67,58.65 L 47.03,57.66 L 46.51,56.44 L 46.12,55.06 L 45.88,53.56 L 45.80,52.00 L 45.88,50.44 L 46.12,48.94 L 46.51,47.56 L 47.03,46.34 L 47.67,45.35 L 48.39,44.61 L 49.18,44.15 L 50.00,44.00 L 50.82,44.15 L 51.61,44.61 L 52.33,45.35 L 52.97,46.34 L 53.49,47.56 L 53.88,48.94 L 54.12,50.44 L 54.20,52.00 Z" fill="currentColor" />
  <path d="M 6.00,64.00 L 26.00,64.00 L 30.00,74.00 L 10.00,74.00 Z" fill="currentColor" fill-rule="evenodd" />
  <path d="M 94.00,64.00 L 74.00,64.00 L 70.00,74.00 L 90.00,74.00 Z" fill="currentColor" fill-rule="evenodd" />
  <path d="M 35.00,66.00 L 65.00,66.00 L 65.00,76.00 L 35.00,76.00 Z" fill="currentColor" fill-rule="evenodd" />
  <path d="M 8.00,74.00 L 24.00,74.00 L 28.00,82.00 L 18.00,82.00 L 24.00,90.00 L 14.00,90.00 L 18.00,97.00 L 10.00,97.00 L 6.00,88.00 L 14.00,88.00 L 10.00,80.00 Z" fill="currentColor" fill-rule="evenodd" />
  <path d="M 92.00,74.00 L 76.00,74.00 L 72.00,82.00 L 82.00,82.00 L 76.00,90.00 L 86.00,90.00 L 82.00,97.00 L 90.00,97.00 L 94.00,88.00 L 86.00,88.00 L 90.00,80.00 Z" fill="currentColor" fill-rule="evenodd" />
</svg>
