<svg viewBox="0 0 100 100" xmlns="http://www.w3.org/2000/svg">
  <path d="M 4.00,4.00 L 4.83,4.92 L 5.60,5.83 L 6.29,6.75 L 6.85,7.67 L 7.25,8.58 L 7.46,9.50 L 7.48,10.42 L 7.31,11.33 L 6.94,12.25 L 6.42,13.17 L 5.75,14.08 L 4.99,15.00 L 4.17,15.92 L 3.34,16.83 L 2.55,17.75 L 1.84,18.67 L 1.25,19.58 L 0.82,20.50 L 0.56,21.42 L 0.50,22.33 L 0.64,23.25 L 0.97,24.17 L 1.47,25.08 L 2.11,26.00 L 2.86,26.92 L 3.67,27.83 L 4.50,28.75 L 5.30,29.67 L 6.03,30.58 L 6.65,31.50 L 7.11,32.42 L 7.40,33.33 L 7.50,34.25 L 7.40,35.17 L 7.11,36.08 L 6.65,37.00 L 6.03,37.92 L 5.30,38.83 L 4.50,39.75 L 3.67,40.67 L 2.86,41.58 L 2.11,42.50 L 1.47,43.42 L 0.97,44.33 L 0.64,45.25 L 0.50,46.17 L 0.56,47.08 L 0.82,48.00" fill="none" stroke="currentColor" stroke-width="1" vector-effect="non-scaling-stroke" />
  <path d="M 11.33,4.00 L 12.16,4.92 L 12.94,5.83 L 13.63,6.75 L 14.18,7.67 L 14.58,8.58 L 14.80,9.50 L 14.82,10.42 L 14.64,11.33 L 14.28,12.25 L 13.75,13.17 L 13.08,14.08 L 12.32,15.00 L 11.50,15.92 L 10.67,16.83 L 9.88,17.75 L 9.17,18.67 L 8.58,19.58 L 8.15,20.50 L 7.90,21.42 L 7.84,22.33 L 7.98,23.25 L 8.30,24.17 L 8.80,25.08 L 9.44,26.00 L 10.19,26.92 L 11.00,27.83 L 11.83,28.75 L 12.63,29.67 L 13.36,30.58 L 13.98,31.50 L 14.44,32.42 L 14.73,33.33 L 14.83,34.25 L 14.73,35.17 L 14.44,36.08 L 13.98,37.00 L 13.36,37.92 L 12.63,38.83 L 11.83,39.75 L 11.00,40.67 L 10.19,41.58 L 9.44,42.50 L 8.80,43.42 L 8.30,44.33 L 7.98,45.25 L 7.84,46.17 L 7.90,47.08 L 8.15,48.00" fill="none" stroke="currentColor" stroke-width="1" vector-effect="non-scaling-stroke" />
  <path d="M 18.67,4.00 L 19.49,4.92 L 20.27,5.83 L 20.96,6.75 L 21.52,7.67 L 21.92,8.58 L 22.13,9.50 L 22.15,10.42 L 21.97,11.33 L 21.61,12.25 L 21.08,13.17 L 20.42,14.08 L 19.65,15.00 L 18.83,15.92 L 18.00,16.83 L 17.21,17.75 L 16.50,18.67 L 15.92,19.58 L 15.48,20.50 L 15.23,21.42 L 15.17,22.33 L 15.31,23.25 L 15.64,24.17 L 16.13,25.08 L 16.77,26.00 L 17.52,26.92 L 18.33,27.83 L 19.16,28.75 L 19.97,29.67 L 20.70,30.58 L 21.31,31.50 L 21.78,32.42 L 22.07,33.33 L 22.17,34.25 L 22.07,35.17 L 21.78,36.08 L 21.31,37.00 L 20.70,37.92 L 19.97,38.83 L 19.16,39.75 L 18.33,40.67 L 17.52,41.58 L 16.77,42.50 L 16.13,43.42 L 15.64,44.33 L 15.31,45.25 L 15.17,46.17 L 15.23,47.08 L 15.48,48.00" fill="none" stroke="currentColor" stroke-width="1" vector-effect="non-scaling-stroke" />
  <path d="M 26.00,4.00 L 26.83,4.92 L 27.60,5.83 L 28.29,6.75 L 28.85,7.67 L 29.25,8.58 L 29.46,9.50 L 29.48,10.42 L 29.31,11.33 L 28.94,12.25 L 28.42,13.17 L 27.75,14.08 L 26.99,15.00 L 26.17,15.92 L 25.34,16.83 L 24.55,17.75 L 23.84,18.67 L 23.25,19.58 L 22.82,20.50 L 22.56,21.42 L 22.50,22.33 L 22.64,23.25 L 22.97,24.17 L 23.47,25.08 L 24.11,26.00 L 24.86,26.92 L 25.67,27.83 L 26.50,28.75 L 27.30,29.67 L 28.03,30.58 L 28.65,31.50 L 29.11,32.42 L 29.40,33.33 L 29.50,34.25 L 29.40,35.17 L 29.11,36.08 L 28.65,37.00 L 28.03,37.92 L 27.30,38.83 L 26.50,39.75 L 25.67,40.67 L 24.86,41.58 L 24.11,42.50 L 23.47,43.42 L 22.97,44.33 L 22.64,45.25 L 22.50,46.17 L 22.56,47.08 L 22.82,48.00" fill="none" stroke="currentColor" stroke-width="1" vector-effect="non-scaling-stroke" />
  <path d="M 33.33,4.00 L 34.16,4.92 L 34.94,5.83 L 35.63,6.75 L 36.18,7.67 L 36.58,8.58 L 36.80,9.50 L 36.82,10.42 L 36.64,11.33 L 36.28,12.25 L 35.75,13.17 L 35.08,14.08 L 34.32,15.00 L 33.50,15.92 L 32.67,16.83 L 31.88,17.75 L 31.17,18.67 L 30.58,19.58 L 30.15,20.50 L 29.90,21.42 L 29.84,22.33 L 29.98,23.25 L 30.30,24.17 L 30.80,25.08 L 31.44,26.00 L 32.19,26.92 L 33.00,27.83 L 33.83,28.75 L 34.63,29.67 L 35.36,30.58 L 35.98,31.50 L 36.44,32.42 L 36.73,33.33 L 36.83,34.25 L 36.73,35.17 L 36.44,36.08 L 35.98,37.00 L 35.36,37.92 L 34.63,38.83 L 33.83,39.75 L 33.00,40.67 L 32.19,41.58 L 31.44,42.50 L 30.80,43.42 L 30.30,44.33 L 29.98,45.25 L 29.84,46.17 L 29.90,47.08 L 30.15,48.00" fill="none" stroke="currentColor" stroke-width="1" vector-effect="non-scaling-stroke" />
  <path d="M 40.67,4.00 L 41.49,4.92 L 42.27,5.83 L 42.96,6.75 L 43.52,7.67 L 43.92,8.58 L 44.13,9.50 L 44.15,10.42 L 43.97,11.33 L 43.61,12.25 L 43.08,13.17 L 42.42,14.08 L 41.65,15.00 L 40.83,15.92 L 40.00,16.83 L 39.21,17.75 L 38.50,18.67 L 37.92,19.58 L 37.48,20.50 L 37.23,21.42 L 37.17,22.33 L 37.31,23.25 L 37.64,24.17 L 38.13,25.08 L 38.77,26.00 L 39.52,26.92 L 40.33,27.83 L 41.16,28.75 L 41.97,29.67 L 42.70,30.58 L 43.31,31.50 L 43.78,32.42 L 44.07,33.33 L 44.17,34.25 L 44.07,35.17 L 43.78,36.08 L 43.31,37.00 L 42.70,37.92 L 41.97,38.83 L 41.16,39.75 L 40.33,40.67 L 39.52,41.58 L 38.77,42.50 L 38.13,43.42 L 37.64,44.33 L 37.31,45.25 L 37.17,46.17 L 37.23,47.08 L 37.48,48.00" fill="none" stroke="currentColor" stroke-width="1" vector-effect="non-scaling-stroke" />
  <path d="M 48.00,4.00 L 48.83,4.92 L 49.60,5.83 L 50.29,6.75 L 50.85,7.67 L 51.25,8.58 L 51.46,9.50 L 51.48,10.42 L 51.31,11.33 L 50.94,12.25 L 50.42,13.17 L 49.75,14.08 L 48.99,15.00 L 48.17,15.92 L 47.34,16.83 L 46.55,17.75 L 45.84,18.67 L 45.25,19.58 L 44.82,20.50 L 44.56,21.42 L 44.50,22.33 L 44.64,23.25 L 44.97,24.17 L 45.47,25.08 L 46.11,26.00 L 46.86,26.92 L 47.67,27.83 L 48.50,28.75 L 49.30,29.67 L 50.03,30.58 L 50.65,31.50 L 51.11,32.42 L 51.40,33.33 L 51.50,34.25 L 51.40,35.17 L 51.11,36.08 L 50.65,37.00 L 50.03,37.92 L 49.30,38.83 L 48.50,39.75 L 47.67,40.67 L 46.86,41.58 L 46.11,42.50 L 45.47,43.42 L 44.97,44.33 L 44.64,45.25 L 44.50,46.17 L 44.56,47.08 L 44.82,48.00" fill="none" stroke="currentColor" stroke-width="1" vector-effect="non-scaling-stroke" />
  <path d="M 52.00,9.00 L 52.92,8.95 L 53.83,8.79 L 54.75,8.53 L 55.67,8.18 L 56.58,7.74 L 57.50,7.21 L 58.42,6.62 L 59.33,5.98 L 60.25,5.29 L 61.17,4.58 L 62.08,3.85 L 63.00,3.13 L 63.92,2.43 L 64.83,1.76 L 65.75,1.13 L 66.67,0.57 L 67.58,0.08 L 68.50,-0.33 L 69.42,-0.65 L 70.33,-0.87 L 71.25,-0.98 L 72.17,-0.99 L 73.08,-0.90 L 74.00,-0.70 L 74.92,-0.40 L 75.83,-0.01 L 76.75,0.46 L 77.67,1.01 L 78.58,1.63 L 79.50,2.29 L 80.42,2.99 L 81.33,3.71 L 82.25,4.44 L 83.17,5.15 L 84.08,5.85 L 85.00,6.50 L 85.92,7.10 L 86.83,7.64 L 87.75,8.10 L 88.67,8.47 L 89.58,8.75 L 90.50,8.92 L 91.42,9.00 L 92.33,8.97 L 93.25,8.83 L 94.17,8.59 L 95.08,8.26 L 96.00,7.83" fill="none" stroke="currentColor" stroke-width="1" vector-effect="non-scaling-stroke" />
  <path d="M 52.00,16.33 L 52.92,16.28 L 53.83,16.12 L 54.75,15.86 L 55.67,15.51 L 56.58,15.07 L 57.50,14.55 L 58.42,13.96 L 59.33,13.31 L 60.25,12.63 L 61.17,11.91 L 62.08,11.19 L 63.00,10.47 L 63.92,9.76 L 64.83,9.09 L 65.75,8.47 L 66.67,7.90 L 67.58,7.41 L 68.50,7.00 L 69.42,6.69 L 70.33,6.47 L 71.25,6.35 L 72.17,6.34 L 73.08,6.44 L 74.00,6.63 L 74.92,6.93 L 75.83,7.32 L 76.75,7.80 L 77.67,8.35 L 78.58,8.96 L 79.50,9.62 L 80.42,10.32 L 81.33,11.04 L 82.25,11.77 L 83.17,12.49 L 84.08,13.18 L 85.00,13.83 L 85.92,14.43 L 86.83,14.97 L 87.75,15.43 L 88.67,15.80 L 89.58,16.08 L 90.50,16.26 L 91.42,16.33 L 92.33,16.30 L 93.25,16.16 L 94.17,15.92 L 95.08,15.59 L 96.00,15.16" fill="none" stroke="currentColor" stroke-width="1" vector-effect="non-scaling-stroke" />
  <path d="M 52.00,23.67 L 52.92,23.61 L 53.83,23.46 L 54.75,23.20 L 55.67,22.84 L 56.58,22.40 L 57.50,21.88 L 58.42,21.29 L 59.33,20.65 L 60.25,19.96 L 61.17,19.25 L 62.08,18.52 L 63.00,17.80 L 63.92,17.09 L 64.83,16.42 L 65.75,15.80 L 66.67,15.24 L 67.58,14.74 L 68.50,14.34 L 69.42,14.02 L 70.33,13.80 L 71.25,13.69 L 72.17,13.68 L 73.08,13.77 L 74.00,13.97 L 74.92,14.27 L 75.83,14.66 L 76.75,15.13 L 77.67,15.68 L 78.58,16.29 L 79.50,16.96 L 80.42,17.66 L 81.33,18.38 L 82.25,19.10 L 83.17,19.82 L 84.08,20.51 L 85.00,21.17 L 85.92,21.77 L 86.83,22.30 L 87.75,22.76 L 88.67,23.13 L 89.58,23.41 L 90.50,23.59 L 91.42,23.66 L 92.33,23.63 L 93.25,23.50 L 94.17,23.26 L 95.08,22.92 L 96.00,22.50" fill="none" stroke="currentColor" stroke-width="1" vector-effect="non-scaling-stroke" />
  <path d="M 52.00,31.00 L 52.92,30.95 L 53.83,30.79 L 54.75,30.53 L 55.67,30.18 L 56.58,29.74 L 57.50,29.21 L 58.42,28.62 L 59.33,27.98 L 60.25,27.29 L 61.17,26.58 L 62.08,25.85 L 63.00,25.13 L 63.92,24.43 L 64.83,23.76 L 65.75,23.13 L 66.67,22.57 L 67.58,22.08 L 68.50,21.67 L 69.42,21.35 L 70.33,21.13 L 71.25,21.02 L 72.17,21.01 L 73.08,21.10 L 74.00,21.30 L 74.92,21.60 L 75.83,21.99 L 76.75,22.46 L 77.67,23.01 L 78.58,23.63 L 79.50,24.29 L 80.42,24.99 L 81.33,25.71 L 82.25,26.44 L 83.17,27.15 L 84.08,27.85 L 85.00,28.50 L 85.92,29.10 L 86.83,29.64 L 87.75,30.10 L 88.67,30.47 L 89.58,30.75 L 90.50,30.92 L 91.42,31.00 L 92.33,30.97 L 93.25,30.83 L 94.17,30.59 L 95.08,30.26 L 96.00,29.83" fill="none" stroke="currentColor" stroke-width="1" vector-effect="non-scaling-stroke" />
  <path d="M 52.00,38.33 L 52.92,38.28 L 53.83,38.12 L 54.75,37.86 L 55.67,37.51 L 56.58,37.07 L 57.50,36.55 L 58.42,35.96 L 59.33,35.31 L 60.25,34.63 L 61.17,33.91 L 62.08,33.19 L 63.00,32.47 L 63.92,31.76 L 64.83,31.09 L 65.75,30.47 L 66.67,29.90 L 67.58,29.41 L 68.50,29.00 L 69.42,28.69 L 70.33,28.47 L 71.25,28.35 L 72.17,28.34 L 73.08,28.44 L 74.00,28.63 L 74.92,28.93 L 75.83,29.32 L 76.75,29.80 L 77.67,30.35 L 78.58,30.96 L 79.50,31.62 L 80.42,32.32 L 81.33,33.04 L 82.25,33.77 L 83.17,34.49 L 84.08,35.18 L 85.00,35.83 L 85.92,36.43 L 86.83,36.97 L 87.75,37.43 L 88.67,37.80 L 89.58,38.08 L 90.50,38.26 L 91.42,38.33 L 92.33,38.30 L 93.25,38.16 L 94.17,37.92 L 95.08,37.59 L 96.00,37.16" fill="none" stroke="currentColor" stroke-width="1" vector-effect="non-scaling-stroke" />
  <path d="M 52.00,45.67 L 52.92,45.61 L 53.83,45.46 L 54.75,45.20 L 55.67,44.84 L 56.58,44.40 L 57.50,43.88 L 58.42,43.29 L 59.33,42.65 L 60.25,41.96 L 61.17,41.25 L 62.08,40.52 L 63.00,39.80 L 63.92,39.09 L 64.83,38.42 L 65.75,37.80 L 66.67,37.24 L 67.58,36.74 L 68.50,36.34 L 69.42,36.02 L 70.33,35.80 L 71.25,35.69 L 72.17,35.68 L 73.08,35.77 L 74.00,35.97 L 74.92,36.27 L 75.83,36.66 L 76.75,37.13 L 77.67,37.68 L 78.58,38.29 L 79.50,38.96 L 80.42,39.66 L 81.33,40.38 L 82.25,41.10 L 83.17,41.82 L 84.08,42.51 L 85.00,43.17 L 85.92,43.77 L 86.83,44.30 L 87.75,44.76 L 88.67,45.13 L 89.58,45.41 L 90.50,45.59 L 91.42,45.66 L 92.33,45.63 L 93.25,45.50 L 94.17,45.26 L 95.08,44.92 L 96.00,44.50" fill="none" stroke="currentColor" stroke-width="1" vector-effect="non-scaling-stroke" />
  <path d="M 52.00,53.00 L 52.92,52.95 L 53.83,52.79 L 54.75,52.53 L 55.67,52.18 L 56.58,51.74 L 57.50,51.21 L 58.42,50.62 L 59.33,49.98 L 60.25,49.29 L 61.17,48.58 L 62.08,47.85 L 63.00,47.13 L 63.92,46.43 L 64.83,45.76 L 65.75,45.13 L 66.67,44.57 L 67.58,44.08 L 68.50,43.67 L 69.42,43.35 L 70.33,43.13 L 71.25,43.02 L 72.17,43.01 L 73.08,43.10 L 74.00,43.30 L 74.92,43.60 L 75.83,43.99 L 76.75,44.46 L 77.67,45.01 L 78.58,45.63 L 79.50,46.29 L 80.42,46.99 L 81.33,47.71 L 82.25,48.44 L 83.17,49.15 L 84.08,49.85 L 85.00,50.50 L 85.92,51.10 L 86.83,51.64 L 87.75,52.10 L 88.67,52.47 L 89.58,52.75 L 90.50,52.92 L 91.42,53.00 L 92.33,52.97 L 93.25,52.83 L 94.17,52.59 L 95.08,52.26 L 96.00,51.83" fill="none" stroke="currentColor" stroke-width="1" vector-effect="non-scaling-stroke" />
  <path d="M 4.00,56.00 L 4.92,55.93 L 5.83,55.72 L 6.75,55.39 L 7.67,54.93 L 8.58,54.38 L 9.50,53.74 L 10.42,53.04 L 11.33,52.30 L 12.25,51.55 L 13.17,50.82 L 14.08,50.13 L 15.00,49.51 L 15.92,48.97 L 16.83,48.54 L 17.75,48.22 L 18.67,48.04 L 19.58,48.00 L 20.50,48.10 L 21.42,48.33 L 22.33,48.70 L 23.25,49.17 L 24.17,49.75 L 25.08,50.40 L 26.00,51.11 L 26.92,51.85 L 27.83,52.60 L 28.75,53.32 L 29.67,54.00 L 30.58,54.61 L 31.50,55.13 L 32.42,55.54 L 33.33,55.82 L 34.25,55.97 L 35.17,55.99 L 36.08,55.86 L 37.00,55.60 L 37.92,55.22 L 38.83,54.72 L 39.75,54.13 L 40.67,53.46 L 41.58,52.74 L 42.50,52.00 L 43.42,51.26 L 44.33,50.54 L 45.25,49.87 L 46.17,49.28 L 47.08,48.78 L 48.00,48.40" fill="none" stroke="currentColor" stroke-width="1" vector-effect="non-scaling-stroke" />
  <path d="M 4.00,63.33 L 4.92,63.26 L 5.83,63.06 L 6.75,62.72 L 7.67,62.27 L 8.58,61.71 L 9.50,61.07 L 10.42,60.37 L 11.33,59.63 L 12.25,58.89 L 13.17,58.15 L 14.08,57.46 L 15.00,56.84 L 15.92,56.30 L 16.83,55.87 L 17.75,55.56 L 18.67,55.38 L 19.58,55.34 L 20.50,55.43 L 21.42,55.67 L 22.33,56.03 L 23.25,56.50 L 24.17,57.08 L 25.08,57.73 L 26.00,58.44 L 26.92,59.18 L 27.83,59.93 L 28.75,60.65 L 29.67,61.33 L 30.58,61.94 L 31.50,62.46 L 32.42,62.87 L 33.33,63.16 L 34.25,63.31 L 35.17,63.32 L 36.08,63.20 L 37.00,62.94 L 37.92,62.55 L 38.83,62.05 L 39.75,61.46 L 40.67,60.79 L 41.58,60.08 L 42.50,59.33 L 43.42,58.59 L 44.33,57.87 L 45.25,57.21 L 46.17,56.61 L 47.08,56.11 L 48.00,55.73" fill="none" stroke="currentColor" stroke-width="1" vector-effect="non-scaling-stroke" />
  <path d="M 4.00,70.67 L 4.92,70.60 L 5.83,70.39 L 6.75,70.05 L 7.67,69.60 L 8.58,69.04 L 9.50,68.40 L 10.42,67.70 L 11.33,66.97 L 12.25,66.22 L 13.17,65.49 L 14.08,64.80 L 15.00,64.17 L 15.92,63.63 L 16.83,63.20 L 17.75,62.89 L 18.67,62.71 L 19.58,62.67 L 20.50,62.77 L 21.42,63.00 L 22.33,63.36 L 23.25,63.84 L 24.17,64.41 L 25.08,65.07 L 26.00,65.78 L 26.92,66.52 L 27.83,67.26 L 28.75,67.99 L 29.67,68.67 L 30.58,69.28 L 31.50,69.79 L 32.42,70.20 L 33.33,70.49 L 34.25,70.64 L 35.17,70.66 L 36.08,70.53 L 37.00,70.27 L 37.92,69.89 L 38.83,69.39 L 39.75,68.79 L 40.67,68.13 L 41.58,67.41 L 42.50,66.67 L 43.42,65.92 L 44.33,65.21 L 45.25,64.54 L 46.17,63.95 L 47.08,63.45 L 48.00,63.06" fill="none" stroke="currentColor" stroke-width="1" vector-effect="non-scaling-stroke" />
  <path d="M 4.00,78.00 L 4.92,77.93 L 5.83,77.72 L 6.75,77.39 L 7.67,76.93 L 8.58,76.38 L 9.50,75.74 L 10.42,75.04 L 11.33,74.30 L 12.25,73.55 L 13.17,72.82 L 14.08,72.13 L 15.00,71.51 L 15.92,70.97 L 16.83,70.54 L 17.75,70.22 L 18.67,70.04 L 19.58,70.00 L 20.50,70.10 L 21.42,70.33 L 22.33,70.70 L 23.25,71.17 L 24.17,71.75 L 25.08,72.40 L 26.00,73.11 L 26.92,73.85 L 27.83,74.60 L 28.75,75.32 L 29.67,76.00 L 30.58,76.61 L 31.50,77.13 L 32.42,77.54 L 33.33,77.82 L 34.25,77.97 L 35.17,77.99 L 36.08,77.86 L 37.00,77.60 L 37.92,77.22 L 38.83,76.72 L 39.75,76.13 L 40.67,75.46 L 41.58,74.74 L 42.50,74.00 L 43.42,73.26 L 44.33,72.54 L 45.25,71.87 L 46.17,71.28 L 47.08,70.78 L 48.00,70.40" fill="none" stroke="currentColor" stroke-width="1" vector-effect="non-scaling-stroke" />
  <path d="M 4.00,85.33 L 4.92,85.26 L 5.83,85.06 L 6.75,84.72 L 7.67,84.27 L 8.58,83.71 L 9.50,83.07 L 10.42,82.37 L 11.33,81.63 L 12.25,80.89 L 13.17,80.15 L 14.08,79.46 L 15.00,78.84 L 15.92,78.30 L 16.83,77.87 L 17.75,77.56 L 18.67,77.38 L 19.58,77.34 L 20.50,77.43 L 21.42,77.67 L 22.33,78.03 L 23.25,78.50 L 24.17,79.08 L 25.08,79.73 L 26.00,80.44 L 26.92,81.18 L 27.83,81.93 L 28.75,82.65 L 29.67,83.33 L 30.58,83.94 L 31.50,84.46 L 32.42,84.87 L 33.33,85.16 L 34.25,85.31 L 35.17,85.32 L 36.08,85.20 L 37.00,84.94 L 37.92,84.55 L 38.83,84.05 L 39.75,83.46 L 40.67,82.79 L 41.58,82.08 L 42.50,81.33 L 43.42,80.59 L 44.33,79.87 L 45.25,79.21 L 46.17,78.61 L 47.08,78.11 L 48.00,77.73" fill="none" stroke="currentColor" stroke-width="1" vector-effect="non-scaling-stroke" />
  <path d="M 4.00,92.67 L 4.92,92.60 L 5.83,92.39 L 6.75,92.05 L 7.67,91.60 L 8.58,91.04 L 9.50,90.40 L 10.42,89.70 L 11.33,88.97 L 12.25,88.22 L 13.17,87.49 L 14.08,86.80 L 15.00,86.17 L 15.92,85.63 L 16.83,85.20 L 17.75,84.89 L 18.67,84.71 L 19.58,84.67 L 20.50,84.77 L 21.42,85.00 L 22.33,85.36 L 23.25,85.84 L 24.17,86.41 L 25.08,87.07 L 26.00,87.78 L 26.92,88.52 L 27.83,89.26 L 28.75,89.99 L 29.67,90.67 L 30.58,91.28 L 31.50,91.79 L 32.42,92.20 L 33.33,92.49 L 34.25,92.64 L 35.17,92.66 L 36.08,92.53 L 37.00,92.27 L 37.92,91.89 L 38.83,91.39 L 39.75,90.79 L 40.67,90.13 L 41.58,89.41 L 42.50,88.67 L 43.42,87.92 L 44.33,87.21 L 45.25,86.54 L 46.17,85.95 L 47.08,85.45 L 48.00,85.06" fill="none" stroke="currentColor" stroke-width="1" vector-effect="non-scaling-stroke" />
  <path d="M 4.00,100.00 L 4.92,99.93 L 5.83,99.72 L 6.75,99.39 L 7.67,98.93 L 8.58,98.38 L 9.50,97.74 L 10.42,97.04 L 11.33,96.30 L 12.25,95.55 L 13.17,94.82 L 14.08,94.13 L 15.00,93.51 L 15.92,92.97 L 16.83,92.54 L 17.75,92.22 L 18.67,92.04 L 19.58,92.00 L 20.50,92.10 L 21.42,92.33 L 22.33,92.70 L 23.25,93.17 L 24.17,93.75 L 25.08,94.40 L 26.00,95.11 L 26.92,95.85 L 27.83,96.60 L 28.75,97.32 L 29.67,98.00 L 30.58,98.61 L 31.50,99.13 L 32.42,99.54 L 33.33,99.82 L 34.25,99.97 L 35.17,99.99 L 36.08,99.86 L 37.00,99.60 L 37.92,99.22 L 38.83,98.72 L 39.75,98.13 L 40.67,97.46 L 41.58,96.74 L 42.50,96.00 L 43.42,95.26 L 44.33,94.54 L 45.25,93.87 L 46.17,93.28 L 47.08,92.78 L 48.00,92.40" fill="none" stroke="currentColor" stroke-width="1" vector-effect="non-scaling-stroke" />
  <path d="M 52.00,52.00 L 52.92,52.00 L 53.83,52.00 L 54.75,52.00 L 55.67,52.00 L 56.58,52.00 L 57.50,52.00 L 58.42,52.00 L 59.33,52.00 L 60.25,52.00 L 61.17,52.00 L 62.08,52.00 L 63.00,52.00 L 63.92,52.00 L 64.83,52.00 L 65.75,52.00 L 66.67,52.00 L 67.58,52.00 L 68.50,52.00 L 69.42,52.00 L 70.33,52.00 L 71.25,52.00 L 72.17,52.00 L 73.08,52.00 L 74.00,52.00 L 74.92,52.00 L 75.83,52.00 L 76.75,52.00 L 77.67,52.00 L 78.58,52.00 L 79.50,52.00 L 80.42,52.00 L 81.33,52.00 L 82.25,52.00 L 83.17,52.00 L 84.08,52.00 L 85.00,52.00 L 85.92,52.00 L 86.83,52.00 L 87.75,52.00 L 88.67,52.00 L 89.58,52.00 L 90.50,52.00 L 91.42,52.00 L 92.33,52.00 L 93.25,52.00 L 94.17,52.00 L 95.08,52.00 L 96.00,52.00" fill="none" stroke="currentColor" stroke-width="1" vector-effect="non-scaling-stroke" />
  <path d="M 52.00,59.33 L 52.92,59.33 L 53.83,59.33 L 54.75,59.33 L 55.67,59.33 L 56.58,59.33 L 57.50,59.33 L 58.42,59.33 L 59.33,59.33 L 60.25,59.33 L 61.17,59.33 L 62.08,59.33 L 63.00,59.33 L 63.92,59.33 L 64.83,59.33 L 65.75,59.33 L 66.67,59.33 L 67.58,59.33 L 68.50,59.33 L 69.42,59.33 L 70.33,59.33 L 71.25,59.33 L 72.17,59.33 L 73.08,59.33 L 74.00,59.33 L 74.92,59.33 L 75.83,59.33 L 76.75,59.33 L 77.67,59.33 L 78.58,59.33 L 79.50,59.33 L 80.42,59.33 L 81.33,59.33 L 82.25,59.33 L 83.17,59.33 L 84.08,59.33 L 85.00,59.33 L 85.92,59.33 L 86.83,59.33 L 87.75,59.33 L 88.67,59.33 L 89.58,59.33 L 90.50,59.33 L 91.42,59.33 L 92.33,59.33 L 93.25,59.33 L 94.17,59.33 L 95.08,59.33 L 96.00,59.33" fill="none" stroke="currentColor" stroke-width="1" vector-effect="non-scaling-stroke" />
  <path d="M 52.00,66.67 L 52.92,66.67 L 53.83,66.67 L 54.75,66.67 L 55.67,66.67 L 56.58,66.67 L 57.50,66.67 L 58.42,66.67 L 59.33,66.67 L 60.25,66.67 L 61.17,66.67 L 62.08,66.67 L 63.00,66.67 L 63.92,66.67 L 64.83,66.67 L 65.75,66.67 L 66.67,66.67 L 67.58,66.67 L 68.50,66.67 L 69.42,66.67 L 70.33,66.67 L 71.25,66.67 L 72.17,66.67 L 73.08,66.67 L 74.00,66.67 L 74.92,66.67 L 75.83,66.67 L 76.75,66.67 L 77.67,66.67 L 78.58,66.67 L 79.50,66.67 L 80.42,66.67 L 81.33,66.67 L 82.25,66.67 L 83.17,66.67 L 84.08,66.67 L 85.00,66.67 L 85.92,66.67 L 86.83,66.67 L 87.75,66.67 L 88.67,66.67 L 89.58,66.67 L 90.50,66.67 L 91.42,66.67 L 92.33,66.67 L 93.25,66.67 L 94.17,66.67 L 95.08,66.67 L 96.00,66.67" fill="none" stroke="currentColor" stroke-width="1" vector-effect="non-scaling-stroke" />
  <path d="M 52.00,74.00 L 52.92,74.00 L 53.83,74.00 L 54.75,74.00 L 55.67,74.00 L 56.58,74.00 L 57.50,74.00 L 58.42,74.00 L 59.33,74.00 L 60.25,74.00 L 61.17,74.00 L 62.08,74.00 L 63.00,74.00 L 63.92,74.00 L 64.83,74.00 L 65.75,74.00 L 66.67,74.00 L 67.58,74.00 L 68.50,74.00 L 69.42,74.00 L 70.33,74.00 L 71.25,74.00 L 72.17,74.00 L 73.08,74.00 L 74.00,74.00 L 74.92,74.00 L 75.83,74.00 L 76.75,74.00 L 77.67,74.00 L 78.58,74.00 L 79.50,74.00 L 80.42,74.00 L 81.33,74.00 L 82.25,74.00 L 83.17,74.00 L 84.08,74.00 L 85.00,74.00 L 85.92,74.00 L 86.83,74.00 L 87.75,74.00 L 88.67,74.00 L 89.58,74.00 L 90.50,74.00 L 91.42,74.00 L 92.33,74.00 L 93.25,74.00 L 94.17,74.00 L 95.08,74.00 L 96.00,74.00" fill="none" stroke="currentColor" stroke-width="1" vector-effect="non-scaling-stroke" />
  <path d="M 52.00,81.33 L 52.92,81.33 L 53.83,81.33 L 54.75,81.33 L 55.67,81.33 L 56.58,81.33 L 57.50,81.33 L 58.42,81.33 L 59.33,81.33 L 60.25,81.33 L 61.17,81.33 L 62.08,81.33 L 63.00,81.33 L 63.92,81.33 L 64.83,81.33 L 65.75,81.33 L 66.67,81.33 L 67.58,81.33 L 68.50,81.33 L 69.42,81.33 L 70.33,81.33 L 71.25,81.33 L 72.17,81.33 L 73.08,81.33 L 74.00,81.33 L 74.92,81.33 L 75.83,81.33 L 76.75,81.33 L 77.67,81.33 L 78.58,81.33 L 79.50,81.33 L 80.42,81.33 L 81.33,81.33 L 82.25,81.33 L 83.17,81.33 L 84.08,81.33 L 85.00,81.33 L 85.92,81.33 L 86.83,81.33 L 87.75,81.33 L 88.67,81.33 L 89.58,81.33 L 90.50,81.33 L 91.42,81.33 L 92.33,81.33 L 93.25,81.33 L 94.17,81.33 L 95.08,81.33 L 96.00,81.33" fill="none" stroke="currentColor" stroke-width="1" vector-effect="non-scaling-stroke" />
  <path d="M 52.00,88.67 L 52.92,88.67 L 53.83,88.67 L 54.75,88.67 L 55.67,88.67 L 56.58,88.67 L 57.50,88.67 L 58.42,88.67 L 59.33,88.67 L 60.25,88.67 L 61.17,88.67 L 62.08,88.67 L 63.00,88.67 L 63.92,88.67 L 64.83,88.67 L 65.75,88.67 L 66.67,88.67 L 67.58,88.67 L 68.50,88.67 L 69.42,88.67 L 70.33,88.67 L 71.25,88.67 L 72.17,88.67 L 73.08,88.67 L 74.00,88.67 L 74.92,88.67 L 75.83,88.67 L 76.75,88.67 L 77.67,88.67 L 78.58,88.67 L 79.50,88.67 L 80.42,88.67 L 81.33,88.67 L 82.25,88.67 L 83.17,88.67 L 84.08,88.67 L 85.00,88.67 L 85.92,88.67 L 86.83,88.67 L 87.75,88.67 L 88.67,88.67 L 89.58,88.67 L 90.50,88.67 L 91.42,88.67 L 92.33,88.67 L 93.25,88.67 L 94.17,88.67 L 95.08,88.67 L 96.00,88.67" fill="none" stroke="currentColor" stroke-width="1" vector-effect="non-scaling-stroke" />
  <path d="M 52.00,96.00 L 52.92,96.00 L 53.83,96.00 L 54.75,96.00 L 55.67,96.00 L 56.58,96.00 L 57.50,96.00 L 58.42,96.00 L 59.33,96.00 L 60.25,96.00 L 61.17,96.00 L 62.08,96.00 L 63.00,96.00 L 63.92,96.00 L 64.83,96.00 L 65.75,96.00 L 66.67,96.00 L 67.58,96.00 L 68.50,96.00 L 69.42,96.00 L 70.33,96.00 L 71.25,96.00 L 72.17,96.00 L 73.08,96.00 L 74.00,96.00 L 74.92,96.00 L 75.83,96.00 L 76.75,96.00 L 77.67,96.00 L 78.58,96.00 L 79.50,96.00 L 80.42,96.00 L 81.33,96.00 L 82.25,96.00 L 83.17,96.00 L 84.08,96.00 L 85.00,96.00 L 85.92,96.00 L 86.83,96.00 L 87.75,96.00 L 88.67,96.00 L 89.58,96.00 L 90.50,96.00 L 91.42,96.00 L 92.33,96.00 L 93.25,96.00 L 94.17,96.00 L 95.08,96.00 L 96.00,96.00" fill="none" stroke="currentColor" stroke-width="1" vector-effect="non-scaling-stroke" />
</svg>
