<?xml version="1.0" encoding="UTF-8" standalone="no"?>
<svg
   xmlns:dc="http://purl.org/dc/elements/1.1/"
   xmlns:cc="http://creativecommons.org/ns#"
   xmlns:rdf="http://www.w3.org/1999/02/22-rdf-syntax-ns#"
   xmlns:svg="http://www.w3.org/2000/svg"
   xmlns="http://www.w3.org/2000/svg"
   xmlns:sodipodi="http://sodipodi.sourceforge.net/DTD/sodipodi-0.dtd"
   xmlns:inkscape="http://www.inkscape.org/namespaces/inkscape"
   width="606" height="600" viewBox="106 261 505 500"
   sodipodi:version="0.32"
   inkscape:version="0.46"
   sodipodi:docname="voyager_plaque.svg"
   inkscape:output_extension="org.inkscape.output.svg.inkscape"
   inkscape:export-filename="/home/niko/Escritorio/Gimp/voyager_plaque.png"
   inkscape:export-xdpi="300.06229"
   inkscape:export-ydpi="300.06229">
  <metadata>
    <rdf:RDF>
      <cc:Work rdf:about="">
        <dc:format>image/svg+xml</dc:format>
        <dc:type rdf:resource="http://purl.org/dc/dcmitype/StillImage" />
      </cc:Work>
    </rdf:RDF>
  </metadata>
  <g
     inkscape:label="Capa 1"
     inkscape:groupmode="layer"
     id="layer1">
    <path
       sodipodi:type="arc"
       style="opacity:1;fill:#ffffff;fill-opacity:1;stroke:#000000;stroke-width:0.6;stroke-miterlimit:4;stroke-dasharray:none;stroke-opacity:1"
       id="path3272"
       sodipodi:cx="362.5"
       sodipodi:cy="523.86218"
       sodipodi:rx="241.49872"
       sodipodi:ry="252.5"
       d="M 603.99872,523.86218 A 241.49872,252.5 0 1 1 121.00128,523.86218 A 241.49872,252.5 0 1 1 603.99872,523.86218 z"
       transform="matrix(1.0028363,0,0,0.9534872,-3.9647499,12.616258)" />
    <path
       sodipodi:type="arc"
       style="opacity:1;fill:none;fill-opacity:1;stroke:#000000;stroke-width:0.7;stroke-miterlimit:4;stroke-dasharray:none;stroke-opacity:1"
       id="path2472"
       sodipodi:cx="260.03851"
       sodipodi:cy="420.73904"
       sodipodi:rx="51.442017"
       sodipodi:ry="53.209785"
       d="M 311.48053,420.73904 A 51.442017,53.209785 0 1 1 208.5965,420.73904 A 51.442017,53.209785 0 1 1 311.48053,420.73904 z"
       transform="matrix(1.0935942,0,0,1.05394,-42.988016,-30.73793)" />
    <path
       sodipodi:type="arc"
       style="opacity:1;fill:none;fill-opacity:1;stroke:#000000;stroke-width:0.7;stroke-miterlimit:4;stroke-dasharray:none;stroke-opacity:1"
       id="path2474"
       sodipodi:cx="241.03502"
       sodipodi:cy="415.08218"
       sodipodi:rx="11.755651"
       sodipodi:ry="10.783379"
       d="M 252.79067,415.08218 A 11.755651,10.783379 0 1 1 229.27937,415.08218 A 11.755651,10.783379 0 1 1 252.79067,415.08218 z"
       transform="matrix(0.9192516,0,0,1.0103316,19.816741,-6.0562615)" />
    <path
       sodipodi:type="arc"
       style="opacity:1;fill:none;fill-opacity:1;stroke:#000000;stroke-width:0.7;stroke-miterlimit:4;stroke-dasharray:none;stroke-opacity:1"
       id="path2476"
       sodipodi:cx="241.38858"
       sodipodi:cy="414.46347"
       sodipodi:rx="2.3864853"
       sodipodi:ry="2.3864853"
       d="M 243.77507,414.46347 A 2.3864853,2.3864853 0 1 1 239.00209,414.46347 A 2.3864853,2.3864853 0 1 1 243.77507,414.46347 z"
       transform="translate(0.4419417,-0.9722718)" />
    <rect
       style="opacity:1;fill:none;fill-opacity:1;stroke:#000000;stroke-width:0.7;stroke-miterlimit:4;stroke-dasharray:none;stroke-opacity:1"
       id="rect2478"
       width="65.954636"
       height="49.691177"
       x="406.93149"
       y="535.81226" />
    <path
       sodipodi:type="arc"
       style="opacity:1;fill:none;fill-opacity:1;stroke:#000000;stroke-width:0.7;stroke-miterlimit:4;stroke-dasharray:none;stroke-opacity:1"
       id="path2480"
       sodipodi:cx="439.55527"
       sodipodi:cy="563.22107"
       sodipodi:rx="16.882174"
       sodipodi:ry="15.379573"
       d="M 456.43744,563.22107 A 16.882174,15.379573 0 1 1 422.67309,563.22107 A 16.882174,15.379573 0 1 1 456.43744,563.22107 z"
       transform="matrix(0.9225182,0,0,1.0241434,34.499484,-16.780122)" />
    <rect
       style="opacity:1;fill:none;fill-opacity:1;stroke:#000000;stroke-width:0.7;stroke-miterlimit:4;stroke-dasharray:none;stroke-opacity:1"
       id="rect2482"
       width="65.779503"
       height="49.692822"
       x="406.84225"
       y="478.97766" />
    <path
       style="fill:none;fill-rule:evenodd;stroke:#000000;stroke-width:0.7;stroke-linecap:butt;stroke-linejoin:miter;stroke-opacity:1"
       d="M 406.93995,423.92103 L 437.34554,455.91761 L 447.24504,426.3959 L 478.18096,458.56926 L 488.08046,428.16367 L 518.8396,460.51381 L 527.32488,429.22433 L 531.21397,432.22953 L 531.39075,432.22953"
       id="path2498" />
    <path
       sodipodi:type="arc"
       style="opacity:1;fill:none;fill-opacity:1;stroke:#000000;stroke-width:0.7;stroke-miterlimit:4;stroke-dasharray:none;stroke-opacity:1"
       id="path2520"
       sodipodi:cx="417.81171"
       sodipodi:cy="434.96957"
       sodipodi:rx="2.7400389"
       sodipodi:ry="2.563262"
       d="M 420.55175,434.96957 A 2.7400389,2.563262 0 1 1 415.07167,434.96957 A 2.7400389,2.563262 0 1 1 420.55175,434.96957 z"
       transform="matrix(0.9905742,0,0,1.0933724,3.9382279,-40.525755)" />
    <path
       sodipodi:type="arc"
       style="opacity:1;fill:none;fill-opacity:1;stroke:#000000;stroke-width:0.7;stroke-miterlimit:4;stroke-dasharray:none;stroke-opacity:1"
       id="path2522"
       sodipodi:cx="417.81171"
       sodipodi:cy="434.96957"
       sodipodi:rx="2.7400389"
       sodipodi:ry="2.563262"
       d="M 420.55175,434.96957 A 2.7400389,2.563262 0 1 1 415.07167,434.96957 A 2.7400389,2.563262 0 1 1 420.55175,434.96957 z"
       transform="matrix(0.9905742,0,0,1.0933724,-2.8676794,-47.24328)" />
    <path
       sodipodi:type="arc"
       style="opacity:1;fill:none;fill-opacity:1;stroke:#000000;stroke-width:0.7;stroke-miterlimit:4;stroke-dasharray:none;stroke-opacity:1"
       id="path2524"
       sodipodi:cx="417.81171"
       sodipodi:cy="434.96957"
       sodipodi:rx="2.7400389"
       sodipodi:ry="2.563262"
       d="M 420.55175,434.96957 A 2.7400389,2.563262 0 1 1 415.07167,434.96957 A 2.7400389,2.563262 0 1 1 420.55175,434.96957 z"
       transform="matrix(0.9905742,0,0,1.0933724,40.265834,-42.293532)" />
    <path
       sodipodi:type="arc"
       style="opacity:1;fill:none;fill-opacity:1;stroke:#000000;stroke-width:0.7;stroke-miterlimit:4;stroke-dasharray:none;stroke-opacity:1"
       id="path2526"
       sodipodi:cx="417.81171"
       sodipodi:cy="434.96957"
       sodipodi:rx="2.7400389"
       sodipodi:ry="2.563262"
       d="M 420.55175,434.96957 A 2.7400389,2.563262 0 1 1 415.07167,434.96957 A 2.7400389,2.563262 0 1 1 420.55175,434.96957 z"
       transform="matrix(0.9905742,0,0,1.0933724,45.922688,-36.283124)" />
    <path
       sodipodi:type="arc"
       style="opacity:1;fill:none;fill-opacity:1;stroke:#000000;stroke-width:0.7;stroke-miterlimit:4;stroke-dasharray:none;stroke-opacity:1"
       id="path2528"
       sodipodi:cx="417.81171"
       sodipodi:cy="434.96957"
       sodipodi:rx="2.7400389"
       sodipodi:ry="2.563262"
       d="M 420.55175,434.96957 A 2.7400389,2.563262 0 1 1 415.07167,434.96957 A 2.7400389,2.563262 0 1 1 420.55175,434.96957 z"
       transform="matrix(0.9905742,0,0,1.0933724,78.096047,-43.707746)" />
    <path
       sodipodi:type="arc"
       style="opacity:1;fill:none;fill-opacity:1;stroke:#000000;stroke-width:0.7;stroke-miterlimit:4;stroke-dasharray:none;stroke-opacity:1"
       id="path2530"
       sodipodi:cx="417.81171"
       sodipodi:cy="434.96957"
       sodipodi:rx="2.7400389"
       sodipodi:ry="2.563262"
       d="M 420.55175,434.96957 A 2.7400389,2.563262 0 1 1 415.07167,434.96957 A 2.7400389,2.563262 0 1 1 420.55175,434.96957 z"
       transform="matrix(0.9905742,0,0,1.0933724,84.106455,-37.520561)" />
    <path
       style="fill:none;fill-rule:evenodd;stroke:#000000;stroke-width:0.8;stroke-linecap:round;stroke-linejoin:round"
       id="path2782"
       d="M 426.05817,681.82672 C 425.74607,681.82672 425.538,681.63082 425.538,681.337 C 425.538,681.1411 425.74607,680.84726 426.05817,680.84726 C 426.37028,680.84726 426.57833,681.1411 426.57833,681.337 C 426.57833,681.63082 426.37028,681.82672 426.05817,681.82672 z M 466.631,699.06508 C 460.80517,699.06508 456.01965,694.3637 456.01965,688.68287 C 456.01965,683.00206 460.80517,678.3007 466.631,678.3007 C 472.56089,678.3007 477.34641,683.00206 477.34641,688.68287 C 477.34641,694.3637 472.56089,699.06508 466.631,699.06508 z M 466.83907,686.3322 C 466.52698,686.3322 466.3189,686.03837 466.3189,685.84246 C 466.3189,685.54864 466.52698,685.35275 466.83907,685.35275 C 467.04715,685.35275 467.2552,685.54864 467.2552,685.84246 C 467.2552,686.03837 467.04715,686.3322 466.83907,686.3322 z M 466.73504,685.84246 L 466.83907,691.1315 M 466.631,675.95 L 466.73504,681.23904 M 466.631,676.24384 C 466.3189,676.24384 466.11086,676.04794 466.11086,675.75411 C 466.11086,675.55821 466.3189,675.36233 466.631,675.36233 C 466.83907,675.36233 467.04715,675.55821 467.04715,675.75411 C 467.04715,676.04794 466.83907,676.24384 466.631,676.24384 z M 426.1622,686.3322 L 426.26624,691.62124 M 426.1622,686.72398 C 425.8501,686.72398 425.64204,686.52808 425.64204,686.23426 C 425.64204,686.03837 425.8501,685.74452 426.1622,685.74452 C 426.37028,685.74452 426.57833,686.03837 426.57833,686.23426 C 426.57833,686.52808 426.37028,686.72398 426.1622,686.72398 z M 425.95414,676.04794 L 426.05817,681.337 M 426.05817,699.5548 C 420.23233,699.5548 415.44681,694.85342 415.44681,689.17261 C 415.44681,683.39384 420.23233,678.79041 426.05817,678.79041 C 431.98805,678.79041 436.77356,683.39384 436.77356,689.17261 C 436.77356,694.85342 431.98805,699.5548 426.05817,699.5548 z"
       class="fil1 str0" />
    <path
       style="fill:none;fill-rule:evenodd;stroke:#000000;stroke-width:0.7;stroke-linecap:round;stroke-linejoin:round"
       id="path2818"
       d="M 438.05928,688.59269 L 453.84816,688.35211"
       class="fil1 str1" />
    <path
       style="fill:none;fill-rule:evenodd;stroke:#000000;stroke-width:0.7;stroke-linecap:round;stroke-linejoin:round"
       id="path2820"
       d="M 446.05495,691.47957 L 446.05495,689.55499"
       class="fil1 str1" />
    <path
       style="fill:none;fill-rule:evenodd;stroke:#000000;stroke-width:0.6;stroke-linecap:round;stroke-linejoin:round"
       id="path2846"
       d="M 267.33781,624.26176 L 314.8393,563.34643 M 265.97762,625.99929 L 262.9434,629.88314 M 312.43285,565.08396 L 313.58376,566.00384 M 315.25783,561.71114 L 316.40874,562.5288 M 315.88559,560.89349 L 317.03651,561.71114 M 316.40874,560.17804 L 317.55966,560.99569 M 316.93188,559.46259 L 318.0828,560.28024 M 319.75686,555.88535 L 320.90777,556.703 M 321.64018,553.43238 L 322.79111,554.25003 M 322.16332,552.71692 L 323.31425,553.53458 M 322.68647,552.00147 L 323.83739,552.81914 M 323.31425,551.18381 L 324.46515,552.10368 M 323.83739,550.46837 L 325.09293,551.28604 M 328.33644,544.74479 L 329.48734,545.66465 M 328.9642,544.02933 L 330.11512,544.847 M 329.48734,543.31388 L 330.63826,544.13155 M 331.37065,540.86092 L 332.52158,541.67858 M 335.76509,535.13733 L 336.91601,535.95499 M 336.28822,534.42188 L 337.43914,535.23954 M 336.91601,533.70643 L 338.06692,534.5241 M 338.48541,532.78658 L 339.32247,531.6623 M 337.43914,532.88878 L 338.59008,533.80864 M 335.03268,537.28367 L 335.86971,536.1594 M 333.67252,539.02118 L 334.50955,537.89692 M 332.41697,540.65651 L 333.25398,539.53222 M 330.53365,543.10946 L 331.37065,541.98521 M 327.4994,546.89112 L 328.44106,545.76686 M 326.24384,548.62864 L 327.08088,547.50438 M 324.88369,550.26398 L 325.82534,549.13969 M 320.80314,555.57872 L 321.74483,554.45445 M 319.12908,557.82727 L 319.96612,556.703 M 317.87356,559.36036 L 318.8152,558.2361"
       class="fil1 str1" />
    <path
       style="fill:none;fill-rule:evenodd;stroke:#000000;stroke-width:0.6;stroke-linecap:round;stroke-linejoin:round"
       id="path2848"
       d="M 258.54898,627.12357 L 262.9434,629.98535 M 257.1888,626.20369 L 251.01571,621.91101 M 251.01571,622.83086 L 251.85273,621.7066 M 248.81849,621.50218 L 249.65553,620.27569 M 248.19072,620.99116 L 248.92312,619.86686 M 247.45832,620.58231 L 248.29535,619.35584 M 246.72591,620.07128 L 247.56295,618.94701 M 241.2852,616.18742 L 242.01763,614.96094 M 240.55281,615.67639 L 241.38984,614.55212 M 239.92504,615.26757 L 240.65746,614.04107 M 239.19264,614.75652 L 240.02967,613.63225 M 232.07788,609.9528 L 232.91491,608.82853 M 231.34548,609.54398 L 232.1825,608.31749 M 230.7177,609.03293 L 231.55474,607.90866 M 229.9853,608.6241 L 230.82232,607.39763 M 238.56487,614.34769 L 239.4019,613.12122 M 237.83246,613.83667 L 238.66949,612.71236 M 229.35752,608.11309 L 230.08994,606.98878 M 219.52241,601.57182 L 220.35943,600.44755 M 218.89464,601.163 L 219.62704,599.93653 M 221.92888,603.10495 L 222.76592,601.87845 M 218.68537,600.03873 L 217.53448,599.32328 M 221.82425,602.18506 L 220.56871,601.36742 M 224.02146,603.71818 L 222.87054,602.90052 M 225.80013,604.84244 L 224.54461,604.0248 M 227.4742,605.96674 L 226.32329,605.25129 M 229.14826,607.091 L 227.89273,606.37557 M 234.27507,610.56602 L 233.01954,609.85058 M 235.73989,611.69033 L 234.58896,610.87266 M 237.51858,612.8146 L 236.36765,612.09914 M 243.48242,616.90286 L 242.33151,616.08521 M 245.05185,617.92493 L 243.79631,617.10728 M 246.62129,618.94701 L 245.47036,618.23155"
       class="fil1 str1" />
    <path
       style="fill:none;fill-rule:evenodd;stroke:#000000;stroke-width:0.6;stroke-linecap:round;stroke-linejoin:round"
       id="path2850"
       d="M 262.52486,635.30012 L 262.9434,629.98535 L 265.873,634.68688 M 266.91928,636.32219 L 326.03459,728.81944 M 297.26166,688.03888 L 298.41259,687.22122 M 298.83109,689.26536 L 298.09869,688.03888 M 299.87737,690.90066 L 299.14499,689.67419 M 300.92365,692.53599 L 300.19127,691.30949 M 301.96996,694.1713 L 301.23756,692.94481 M 303.01624,695.8066 L 302.28384,694.58013 M 302.59773,696.52205 L 303.8533,695.8066 M 303.01624,697.2375 L 304.27179,696.41985 M 304.6903,698.36177 L 303.8533,697.13531 M 304.6903,699.89488 L 305.94585,699.07722 M 307.30604,702.55225 L 306.57362,701.32578 M 305.42272,700.91694 L 306.67825,700.20149 M 308.6662,704.5964 L 307.82918,703.36992 M 308.35231,705.61846 L 309.60786,704.90302 M 310.13101,708.27586 L 311.28192,707.45819 M 310.54954,708.99129 L 311.80506,708.27586 M 312.2236,710.21776 L 311.49118,708.99129 M 314.21154,714.71488 L 315.36244,713.89723 M 310.23562,707.04936 L 309.3986,705.82288 M 313.3745,712.05751 L 312.64211,710.83102 M 314.52542,713.79502 L 313.79301,712.67074 M 315.88559,715.94136 L 315.15319,714.71488 M 316.93188,717.47447 L 316.19948,716.35019 M 316.618,718.29212 L 317.87356,717.57668 M 317.03651,719.10977 L 318.29206,718.29212 M 317.55966,719.82521 L 318.8152,719.10977 M 317.97818,720.64288 L 319.23372,719.92744 M 319.75686,721.97156 L 319.02445,720.74509 M 320.80314,723.50468 L 320.07074,722.3804 M 321.84943,725.13999 L 321.11705,723.91351 M 324.36053,727.49074 L 325.51145,726.77531"
       class="fil1 str1" />
    <path
       style="fill:none;fill-rule:evenodd;stroke:#000000;stroke-width:0.6;stroke-linecap:round;stroke-linejoin:round"
       id="path2852"
       d="M 257.71195,630.29198 L 262.9434,630.18975 M 239.71577,632.2339 L 239.71577,630.803 M 256.24714,630.49638 L 236.47228,631.72288"
       class="fil1 str1" />
    <path
       style="fill:none;fill-rule:evenodd;stroke:#000000;stroke-width:0.6;stroke-linecap:round;stroke-linejoin:round"
       id="path2906"
       d="M 262.52486,635.30012 L 262.9434,629.98535 M 262.31561,637.13984 L 259.80453,663.61143 M 258.96749,666.37102 L 260.32767,666.47321 M 258.86286,667.29086 L 260.32767,667.39309 M 258.75823,668.21074 L 260.22304,668.31294 M 259.28137,670.45928 L 259.386,669.02838 M 259.07211,672.60562 L 259.17675,671.17474 M 258.86286,674.75198 L 258.96749,673.32109 M 258.02584,675.36523 L 259.49064,675.46742 M 257.9212,676.28508 L 259.386,676.38729 M 258.54898,678.22702 L 258.6536,676.79614 M 257.71195,679.04466 L 259.17675,679.14687 M 257.60731,679.96455 L 259.07211,680.06674 M 257.29344,682.82633 L 258.75823,682.92853 M 257.1888,683.74618 L 258.6536,683.8484 M 256.7703,688.65212 L 258.2351,688.75432 M 256.45641,691.61612 L 257.9212,691.82053 M 256.14253,694.68233 L 257.60731,694.78454 M 255.61937,699.69047 L 257.08417,699.79267 M 255.61937,700.50812 L 256.97955,700.61033 M 256.66565,696.82867 L 256.7703,695.39777 M 256.45641,698.97501 L 256.56102,697.54412 M 256.97955,693.96688 L 257.08417,692.53599 M 257.29344,690.90066 L 257.39805,689.46978 M 257.50269,688.03888 L 257.60731,686.60797 M 257.71195,685.89254 L 257.81658,684.56383 M 258.13046,682.21307 L 258.2351,680.78218 M 258.96749,665.55335 L 260.43229,665.65557 M 259.28137,661.46508 L 260.74618,661.56728 M 255.51473,701.53019 L 256.87491,701.63239"
       class="fil1 str1" />
    <path
       style="fill:none;fill-rule:evenodd;stroke:#000000;stroke-width:0.6;stroke-linecap:round;stroke-linejoin:round"
       id="path2908"
       d="M 267.96556,634.48245 L 266.91928,635.40231 M 269.01187,636.52659 L 267.96556,635.50451 M 269.95353,636.62879 L 268.90725,637.65087 M 270.5813,637.24205 L 269.53501,638.26412 M 271.52295,639.38838 L 270.47667,638.36631 M 272.98776,640.92148 L 271.94147,640.00163 M 273.72017,640.71708 L 272.67387,641.73915 M 274.76644,642.86343 L 273.72017,641.84136 M 276.02201,644.19212 L 274.97571,643.17005 M 277.06827,644.39652 L 276.02201,645.41859 M 277.59143,645.00977 L 276.54514,646.03183 M 278.53309,647.15612 L 277.59143,646.13405 M 279.89326,648.48481 L 278.95161,647.56494 M 281.25345,650.0179 L 280.20714,648.99584 M 281.98583,649.81349 L 280.93956,650.73336 M 283.03213,652.06205 L 281.98583,651.03998 M 284.07841,652.16425 L 283.03213,653.18632 M 285.12471,654.31059 L 284.07841,653.28852 M 285.85712,654.20839 L 284.81083,655.12824 M 286.48489,654.82162 L 285.43859,655.84369 M 287.11264,655.53708 L 286.06638,656.55914 M 287.9497,657.47902 L 286.9034,656.55914 M 288.99597,657.58121 L 287.9497,658.50109 M 289.62377,658.19446 L 288.57747,659.21653 M 290.46078,660.13639 L 289.41451,659.11432 M 291.40245,660.13639 L 290.35616,661.15845 M 292.03021,660.85183 L 290.98392,661.87391 M 292.65799,661.56728 L 291.61171,662.58935 M 293.28576,662.18053 L 292.23947,663.2026 M 266.08226,632.3361 L 265.03597,633.35817 M 266.08226,633.35817 L 265.03597,632.3361 M 264.72208,631.72288 L 263.15264,630.08756"
       class="fil1 str1" />
    <path
       style="fill:none;fill-rule:evenodd;stroke:#000000;stroke-width:0.6;stroke-linecap:round;stroke-linejoin:round"
       id="path2910"
       d="M 365.58431,660.23859 L 366.94449,660.64744 M 327.08088,648.17818 L 326.66239,649.50687 M 269.32574,632.02949 L 324.36053,648.07597 M 267.65169,631.62065 L 263.15264,629.98535 M 317.55966,645.41859 L 317.14114,646.74729 M 333.56788,650.0179 L 333.14936,651.34661 M 334.4049,650.22232 L 333.98639,651.551 M 340.68264,652.06205 L 340.26411,653.39074 M 341.41505,652.36865 L 340.99652,653.69735 M 342.14746,652.57307 L 341.72892,653.90177 M 342.98448,652.7775 L 342.56595,654.20839 M 343.71686,653.08411 L 343.29836,654.41279 M 348.52979,654.41279 L 348.00666,655.84369 M 354.49366,656.15032 L 354.07513,657.58121 M 355.33067,656.45695 L 354.91217,657.78563 M 357.73714,657.17239 L 357.31862,658.50109 M 358.6788,657.47902 L 358.15566,658.80769 M 359.51583,657.68341 L 359.09733,659.11432 M 362.34082,658.50109 L 361.81767,659.82976 M 365.06118,659.31873 L 364.64264,660.64744 M 327.39477,648.99584 L 328.75494,649.40465 M 329.17346,649.50687 L 330.63826,649.91571 M 331.16139,650.12011 L 332.52158,650.52894 M 334.61417,651.03998 L 335.97435,651.44881 M 336.49749,651.6532 L 337.85766,652.06205 M 338.27616,652.16425 L 339.63635,652.67528 M 344.24002,653.90177 L 345.6002,654.31059 M 346.01872,654.41279 L 347.37889,654.82162 M 348.63442,655.23044 L 349.99461,655.63929 M 350.62238,655.7415 L 351.98256,656.15032 M 352.40105,656.35474 L 353.86587,656.76357 M 355.53993,657.27459 L 357.00474,657.68341 M 359.93434,658.50109 L 361.39916,658.90991 M 362.86395,659.42093 L 364.22413,659.82976"
       class="fil1 str1" />
    <path
       style="fill:none;fill-rule:evenodd;stroke:#000000;stroke-width:0.6;stroke-linecap:round;stroke-linejoin:round"
       id="path2912"
       d="M 322.05871,615.26757 L 323.41888,614.96094 M 321.22168,614.75652 L 321.53557,616.18742 M 320.38464,615.06315 L 320.69852,616.39184 M 318.39669,616.28961 L 319.75686,615.88079 M 317.35039,615.7786 L 317.6643,617.10728 M 315.36244,617.00507 L 316.82726,616.69845 M 314.4208,616.39184 L 314.8393,617.82274 M 313.58376,616.69845 L 313.89765,618.02713 M 312.74674,616.90286 L 313.06061,618.33376 M 310.75879,618.12935 L 312.11894,617.82274 M 308.56157,618.74258 L 310.02638,618.33376 M 306.36437,619.25362 L 307.82918,618.84481 M 305.52734,618.74258 L 305.94585,620.17348 M 303.5394,619.96908 L 305.00418,619.66244 M 302.80698,619.45803 L 303.12087,620.88892 M 300.71441,620.68452 L 302.17923,620.37791 M 299.87737,620.17348 L 300.29592,621.60438 M 297.99405,621.50218 L 299.35424,621.19555 M 295.90148,622.0132 L 297.36628,621.7066 M 295.06447,621.39997 L 295.37835,622.72866 M 293.18115,622.62644 L 294.64593,622.31982 M 292.3441,622.0132 L 292.65799,623.4441 M 291.50708,622.31982 L 291.82096,623.64852 M 289.62377,623.54632 L 290.98392,623.23968 M 287.63579,624.05734 L 288.99597,623.75072 M 285.64784,624.56839 L 287.00802,624.26176 M 283.65991,624.97721 L 285.02009,624.67059 M 281.67194,625.48825 L 283.13676,625.18161 M 280.93956,624.97721 L 281.25345,626.30589 M 271.31369,627.43018 L 271.62757,628.75885 M 269.63964,628.55446 L 279.16087,626.10149 M 262.9434,629.98535 L 267.86094,628.96328 M 324.2559,614.75652 L 325.61608,614.4499"
       class="fil1 str1" />
    <path
       style="fill:none;fill-rule:evenodd;stroke:#000000;stroke-width:0.6;stroke-linecap:round;stroke-linejoin:round"
       id="path2914"
       d="M 267.75631,624.05734 L 268.8026,625.07942 M 268.69799,624.15955 L 269.63964,623.1375 M 270.05815,622.62644 L 271.10444,621.60438 M 270.99981,620.58231 L 272.0461,621.60438 M 271.52295,619.96908 L 272.56924,620.99116 M 272.56924,619.86686 L 273.61554,618.84481 M 274.03406,618.33376 L 274.97571,617.31168 M 274.97571,616.18742 L 276.02201,617.20949 M 276.02201,616.08521 L 277.06827,615.06315 M 276.96366,613.93886 L 278.00994,614.96094 M 277.59143,613.32562 L 278.63772,614.34769 M 278.63772,613.12122 L 279.68401,612.09914 M 279.57939,611.17927 L 280.62567,612.09914 M 280.62567,610.97487 L 281.67194,609.9528 M 281.56733,608.93073 L 282.61363,609.85058 M 282.1951,608.21528 L 283.24138,609.13513 M 282.82288,607.49983 L 283.86916,608.52191 M 283.86916,607.39763 L 284.81083,606.37557 M 284.81083,605.25129 L 285.85712,606.27334 M 285.85712,605.25129 L 286.9034,604.22922 M 287.32192,603.61596 L 288.3682,602.59391 M 288.26358,601.57182 L 289.30986,602.59391 M 289.30986,601.36742 L 290.35616,600.34535 M 290.25152,599.32328 L 291.29783,600.24314 M 290.87929,598.60782 L 291.92558,599.6299 M 291.50708,597.89238 L 292.55335,598.91445 M 292.55335,597.68796 L 293.49503,596.76811 M 294.01816,596.15487 L 295.06447,595.1328 M 295.48296,594.62177 L 296.42463,593.5997 M 263.04801,630.18975 L 264.82671,628.75885"
       class="fil1 str1" />
    <path
       style="fill:none;fill-rule:evenodd;stroke:#000000;stroke-width:0.6;stroke-linecap:round;stroke-linejoin:round"
       id="path2916"
       d="M 258.54898,605.35349 L 260.01378,605.14908 M 258.13046,602.28728 L 259.59528,602.08288 M 257.9212,601.36742 L 259.386,601.163 M 257.50269,598.50564 L 258.96749,598.19901 M 257.39805,597.58576 L 258.75823,597.38134 M 256.66565,592.57763 L 258.13046,592.37321 M 256.24714,589.61363 L 257.60731,589.40922 M 256.03787,588.79596 L 257.50269,588.48935 M 255.61937,585.83197 L 256.97955,585.62755 M 254.88697,580.82382 L 256.35178,580.61941 M 253.63142,572.34066 L 255.09623,572.13625 M 253.21291,569.68326 L 254.67772,569.47885 M 253.10828,568.86561 L 254.46846,568.55901 M 251.95735,561.50672 L 253.31754,561.20009 M 253.00365,563.34643 L 252.7944,562.01775 M 253.31754,565.49279 L 253.10828,564.16409 M 253.73604,567.74134 L 253.52679,566.41266 M 254.25919,571.62521 L 254.04994,570.19432 M 254.67772,574.38478 L 254.46846,572.95389 M 254.99159,576.42893 L 254.78234,574.99803 M 255.30547,578.26866 L 255.09623,576.93995 M 255.61937,580.21059 L 255.41011,578.77969 M 255.93326,582.86797 L 255.72399,581.43707 M 256.24714,584.91211 L 256.03787,583.58341 M 256.66565,587.87611 L 256.45641,586.54741 M 257.29344,591.65775 L 257.08417,590.32907 M 257.71195,594.62177 L 257.50269,593.19088 M 258.02584,596.66589 L 257.81658,595.235 M 258.54898,600.44755 L 258.33974,599.11887 M 259.17675,604.43361 L 258.96749,603.10495 M 259.386,610.1572 L 260.74618,609.9528 M 262.00174,623.3419 L 259.69991,607.29541 M 262.9434,629.88314 L 262.21099,624.97721"
       class="fil1 str1" />
    <path
       style="fill:none;fill-rule:evenodd;stroke:#000000;stroke-width:0.6;stroke-linecap:round;stroke-linejoin:round"
       id="path2918"
       d="M 225.48625,632.2339 L 225.38164,630.803 M 218.47612,632.74495 L 218.3715,631.31404 M 217.6391,632.84714 L 217.53448,631.41624 M 217.01131,632.02949 L 215.54652,632.13171 M 205.08363,633.6648 L 204.979,632.3361 M 207.17621,632.74495 L 205.81603,632.84714 M 204.35122,632.94935 L 202.88643,633.05155 M 200.27071,633.97141 L 200.16609,632.54053 M 199.43367,634.07362 L 199.32904,632.64273 M 198.59664,634.17585 L 198.49201,632.74495 M 191.58651,634.58467 L 191.58651,633.15377 M 202.15402,633.05155 L 200.68922,633.15377 M 198.07349,633.46039 L 196.60871,633.46039 M 195.98092,633.5626 L 194.51612,633.6648 M 193.99297,633.767 L 192.52818,633.767 M 190.95873,633.97141 L 189.49394,633.97141 M 188.86617,634.07362 L 187.40135,634.07362 M 214.81412,632.94935 L 214.70949,631.51846 M 211.88451,633.15377 L 211.88451,631.82507 M 214.3956,632.2339 L 212.9308,632.3361 M 211.57062,632.43832 L 210.10582,632.54053 M 209.47804,632.54053 L 208.01325,632.64273 M 230.82232,631.82507 L 230.82232,630.39418 M 235.73989,631.51846 L 235.63526,630.08756 M 230.08994,631.82507 L 229.9853,630.49638 M 229.2529,631.92727 L 229.14826,630.49638 M 228.41587,632.02949 L 228.31123,630.5986 M 220.77796,631.82507 L 219.31316,631.92727 M 222.76592,631.72288 L 221.3011,631.72288 M 224.85848,631.51846 L 223.39367,631.62065 M 227.68345,631.31404 L 226.21866,631.41624 M 233.01954,631.00743 L 231.55474,631.00743 M 235.00748,630.9052 L 233.54269,630.9052"
       class="fil1 str1" />
    <path
       style="fill:none;fill-rule:evenodd;stroke:#000000;stroke-width:0.6;stroke-linecap:round;stroke-linejoin:round"
       id="path2920"
       d="M 181.96065,638.05969 L 180.49585,638.16191 M 182.79768,638.77514 L 182.58844,637.34424 M 184.47176,637.85529 L 183.11157,637.95748 M 186.66895,637.65087 L 185.30877,637.75308 M 188.55227,637.34424 L 187.08748,637.54866 M 190.54021,637.24205 L 189.07542,637.34424 M 192.42355,637.03765 L 190.95873,637.13984 M 193.46982,637.54866 L 193.26057,636.21997 M 195.45778,636.73101 L 193.99297,636.83321 M 196.39944,637.34424 L 196.19018,635.91335 M 198.59664,636.42439 L 197.13184,636.52659 M 199.32904,637.03765 L 199.11978,635.70894 M 201.10772,636.21997 L 199.64292,636.32219 M 203.2003,635.91335 L 201.84015,636.11778 M 205.08363,635.70894 L 203.61884,635.81114 M 207.17621,635.50451 L 205.81603,635.70894 M 209.26879,635.30012 L 207.80398,635.50451 M 210.10582,636.01556 L 209.89654,634.58467 M 210.83822,635.91335 L 210.73359,634.48245 M 211.67525,635.81114 L 211.57062,634.38024 M 213.76783,634.8913 L 212.30303,635.0957 M 215.86041,634.68688 L 214.3956,634.78907 M 216.69743,635.40231 L 216.48818,633.97141 M 217.53448,635.30012 L 217.32521,633.86922 M 219.31316,634.38024 L 217.84837,634.48245 M 220.25483,634.99348 L 220.04554,633.6648 M 225.59088,634.48245 L 225.38164,633.05155 M 262.9434,630.18975 L 221.40573,634.17585"
       class="fil1 str1" />
    <path
       style="fill:none;fill-rule:evenodd;stroke:#000000;stroke-width:0.6;stroke-linecap:round;stroke-linejoin:round"
       id="path2922"
       d="M 239.82041,638.46854 L 239.19264,637.13984 M 228.5205,642.04578 L 227.89273,640.71708 M 227.68345,642.35239 L 227.05569,641.1259 M 226.95107,642.65899 L 226.32329,641.43253 M 226.11403,643.06782 L 225.48625,641.73915 M 216.69743,645.82743 L 216.06966,644.49871 M 215.86041,646.13405 L 215.23263,644.90757 M 231.45009,641.0237 L 230.7177,639.79722 M 219.52241,644.90757 L 218.89464,643.57888 M 234.06581,640.20605 L 233.43806,638.87736 M 236.99544,639.18398 L 236.36765,637.95748 M 238.77413,637.85529 L 237.41395,638.46854 M 235.94914,638.67294 L 234.69361,639.28618 M 233.12416,639.69502 L 231.76399,640.30825 M 230.29918,640.51265 L 228.93901,641.1259 M 224.96311,642.25018 L 223.60293,642.86343 M 223.07981,642.96563 L 221.71962,643.57888 M 221.3011,643.47667 L 220.04554,644.08989 M 218.58075,644.39652 L 217.22057,645.00977 M 250.59718,634.78907 L 249.96941,633.5626 M 249.86479,635.19789 L 249.23702,633.97141 M 245.15647,636.62879 L 244.52872,635.40231 M 244.31946,637.03765 L 243.69168,635.70894 M 240.65746,638.05969 L 240.02967,636.73101 M 243.27317,637.34424 L 242.64539,636.01556 M 242.01763,636.73101 L 240.65746,637.34424 M 246.72591,635.19789 L 245.47036,635.81114 M 248.60923,634.58467 L 247.3537,635.19789 M 252.27125,633.46039 L 250.91108,634.07362 M 253.42216,633.97141 L 252.7944,632.64273 M 255.93326,632.2339 L 254.67772,632.84714 M 258.02584,631.72288 L 262.9434,629.98535 M 260.01378,631.72288 L 259.386,630.49638"
       class="fil1 str1" />
    <path
       style="fill:none;fill-rule:evenodd;stroke:#000000;stroke-width:0.6;stroke-linecap:round;stroke-linejoin:round"
       id="path2924"
       d="M 249.34164,647.46274 L 248.29535,646.44067 M 248.81849,648.07597 L 247.77221,647.15612 M 246.83054,650.32453 L 245.78427,649.30247 M 246.3074,651.03998 L 245.26111,650.0179 M 242.95927,654.92384 L 241.91299,654.00398 M 240.97134,657.17239 L 239.82041,656.25252 M 235.42601,663.91805 L 234.37971,662.99817 M 234.79822,664.6335 L 233.75194,663.61143 M 236.15839,661.9761 L 235.11211,662.99817 M 238.56487,659.11432 L 237.51858,660.13639 M 237.30933,660.54521 L 236.26302,661.56728 M 239.82041,657.47902 L 238.87875,658.50109 M 241.91299,655.12824 L 240.8667,656.15032 M 243.79631,652.87971 L 242.85465,653.90177 M 245.26111,651.24438 L 244.21483,652.26645 M 247.77221,648.17818 L 246.83054,649.20025 M 255.72399,639.89943 L 254.67772,638.87736 M 255.20085,640.61488 L 254.15457,639.69502 M 253.31754,642.86343 L 252.27125,641.84136 M 252.68977,643.47667 L 251.64346,642.4546 M 250.28328,645.21418 L 249.23702,646.23623 M 251.64346,643.57888 L 250.70182,644.60094 M 254.15457,640.71708 L 253.10828,641.73915 M 256.66565,637.75308 L 255.72399,638.77514 M 257.60731,637.65087 L 256.56102,636.73101 M 258.54898,635.50451 L 257.60731,636.52659 M 259.69991,635.30012 L 258.6536,634.38024 M 260.53692,633.25598 L 259.59528,634.27804 M 262.00174,631.51846 L 262.9434,629.98535 M 261.47858,633.05155 L 260.43229,632.02949"
       class="fil1 str1" />
    <path
       style="fill:none;fill-rule:evenodd;stroke:#000000;stroke-width:0.6;stroke-linecap:round;stroke-linejoin:round"
       id="path2926"
       d="M 263.04801,629.88314 L 264.82671,625.59045 M 264.82671,623.54632 L 266.18688,624.05734 M 265.34985,624.15955 L 265.97762,622.83086 M 265.76836,621.39997 L 267.12855,621.91101 M 266.71003,620.88892 L 267.23318,619.56026 M 266.81467,618.64038 L 268.17484,619.15141 M 267.12855,617.7205 L 268.48872,618.33376 M 267.44242,616.90286 L 268.8026,617.41392 M 267.75631,616.08521 L 269.11648,616.59624 M 269.63964,611.4859 L 270.99981,611.99692 M 268.69799,615.67639 L 269.22112,614.34769 M 269.43037,613.83667 L 270.05815,612.50797 M 269.95353,610.56602 L 271.31369,611.17927 M 270.26741,609.74838 L 271.62757,610.25943 M 270.5813,608.93073 L 271.94147,609.44175 M 272.56924,603.92258 L 273.92942,604.53583 M 271.62757,608.52191 L 272.15074,607.19321 M 272.35999,606.37557 L 272.98776,605.04686 M 272.88312,603.10495 L 274.2433,603.61596 M 273.19701,602.28728 L 274.55719,602.79832 M 275.08033,597.68796 L 276.33589,598.19901 M 275.28959,596.8703 L 276.64976,597.38134 M 279.26549,586.64962 L 280.62567,587.16065 M 279.57939,585.83197 L 280.93956,586.34301 M 280.62567,583.17459 L 281.98583,583.68561 M 274.13869,601.87845 L 274.66183,600.54976 M 274.87108,599.93653 L 275.39423,598.60782 M 276.33589,596.46149 L 276.85902,595.1328 M 276.96366,594.72397 L 277.48681,593.39526 M 277.59143,592.88424 L 278.2192,591.65775 M 278.53309,590.73789 L 279.05625,589.40922 M 279.26549,588.79596 L 279.78864,587.46729 M 280.62567,585.32095 L 281.14881,583.99223"
       class="fil1 str1" />
    <path
       style="fill:none;fill-rule:evenodd;stroke:#000000;stroke-width:0.6;stroke-linecap:butt;stroke-linejoin:miter;stroke-opacity:1;stroke-miterlimit:4;stroke-dasharray:none"
       d="M 350.9116,362.36218 L 353.12499,384.61218 L 354.37499,362.36218 L 356.74999,384.61218 L 358.37499,362.36218 L 360.87499,384.61218 L 362.49999,362.36218 L 365.62499,384.61218 L 366.62499,362.36218 L 368.87499,384.61218 L 370.62499,362.36218 L 372.62499,384.61218 L 374.87499,362.36218 L 377.12499,384.61218 L 378.74999,362.36218 L 381.24999,377.1122 L 398.24999,377.2372 L 398.21966,389.6122 L 402.12499,389.6122 L 402.12499,392.36218 L 404.81249,392.36218 L 405.87499,391.5497 L 405.87499,371.7372 L 408.05177,374.91918 L 408.85983,370.46391 L 409.58616,370.91305 L 410.43749,365.9872 L 411.99999,374.9872 L 412.49999,371.4872 L 413.21874,373.01845 L 413.74999,371.4872 L 414.93749,383.0497 L 416.81249,370.6747 L 417.56249,373.9872 L 418.49999,369.0497 L 419.24999,371.8622 L 420.18749,377.4247 L 422.37499,363.1122 L 423.56249,375.4872 L 424.43749,372.3622 L 425.21874,373.1747 L 425.99999,371.0497 L 427.74999,384.61218 L 428.49999,374.1122 L 429.43749,375.0497 L 429.81249,370.1747 L 431.12499,369.4872 L 432.12499,362.36218 L 433.18749,373.2997 L 434.06249,368.7997 L 434.99999,376.2997 L 435.74999,374.9247 L 436.93749,378.45595 L 437.74999,377.47158 L 438.99999,380.2997 L 438.99999,388.6122 L 439.99999,389.6122 L 444.81249,389.6122 L 444.87499,392.36218 L 446.81249,392.36218 L 447.62499,391.5497 L 447.62499,372.7997 L 448.68749,374.1122 L 449.81249,373.4872 L 449.74999,368.7372 L 451.12499,369.4872 L 452.68749,365.6747 L 453.93749,367.3622 L 455.12499,374.7372 L 456.06249,371.8622 L 457.68749,380.8622 L 458.37499,379.6122 L 459.37499,382.0497 L 461.18749,373.2372 L 462.24999,369.4247 L 463.62499,372.8622 L 464.93749,367.1122 L 466.37499,374.9872 L 467.99999,362.36218 L 469.25,371.36219 L 469.99999,368.7997 L 471.62499,381.4872 L 472.09374,373.7997 L 472.60936,374.4247 L 472.74999,369.6747 L 473.74999,368.8622 L 474.62499,362.36218 L 475.62499,371.4247 L 476.34374,368.64345 L 477.93749,377.0497 L 478.43749,376.45595 L 479.15624,379.84658 L 480.24999,380.6122 L 480.31249,389.6122 L 485.62499,389.6122 L 485.62499,392.36218 L 488.87499,392.36218 L 489.62499,391.5497 L 489.62499,372.7372 L 491.37499,375.8622 L 492.62499,369.9872 L 493.37499,366.6122 L 494.62499,368.8622 L 494.87499,365.7372 L 496.37499,363.9872 L 497.74999,370.1122 L 499.24999,368.1122 L 502.99999,381.9872 L 505.99999,366.3622 L 507.68749,373.0497 L 508.62499,367.2372 L 509.87499,371.9872 L 511.18749,362.9247 L 512.53124,372.1747 L 513.32812,370.83095 L 514.62499,382.0497 L 515.09374,371.89344 L 515.95312,372.44031 L 516.93749,362.36218 L 518.31249,372.2997 L 519.06249,369.1747 L 519.74999,380.0497 L 520.65624,377.9872 L 521.37499,381.0497 L 523.24999,382.0497 L 523.24999,389.6122 L 528.37499,389.6122 L 528.49999,392.36218 L 529.81249,392.36218 L 530.43749,390.39344 L 530.43749,373.1747"
       id="path2432"
       sodipodi:nodetypes="ccccccccccccccccccccccccccccccccccccccccccccccccccccccccccccccccccccccccccccccccccccccccccccccccccccccccccccccccccccccccccccccccccc" />
    <path
       style="fill:none;fill-rule:evenodd;stroke:#000000;stroke-width:0.7;stroke-linecap:butt;stroke-linejoin:miter;stroke-opacity:1"
       d="M 423.02663,352.0613 L 423.02663,358.69043 L 423.02663,358.69043"
       id="path3230" />
    <path
       style="fill:none;fill-rule:evenodd;stroke:#000000;stroke-width:0.7;stroke-linecap:butt;stroke-linejoin:miter;stroke-opacity:1"
       d="M 464.30399,352.0613 L 464.30399,358.69043"
       id="path3232" />
    <path
       style="fill:none;fill-rule:evenodd;stroke:#000000;stroke-width:0.7;stroke-linecap:butt;stroke-linejoin:miter;stroke-opacity:1"
       d="M 509.0285,352.0613 L 509.0285,358.69043 L 509.0285,358.69043"
       id="path3234" />
    <path
       style="fill:none;fill-rule:evenodd;stroke:#000000;stroke-width:0.7;stroke-linecap:butt;stroke-linejoin:miter;stroke-opacity:1"
       d="M 512.82919,352.0613 L 512.82919,358.69043 L 512.82919,358.69043 L 512.82919,358.69043"
       id="path3236" />
    <path
       style="fill:none;fill-rule:evenodd;stroke:#000000;stroke-width:0.7;stroke-linecap:butt;stroke-linejoin:miter;stroke-opacity:1"
       d="M 466.42531,355.33167 L 471.28667,355.33167"
       id="path3238" />
    <path
       style="fill:none;fill-rule:evenodd;stroke:#000000;stroke-width:0.7;stroke-linecap:butt;stroke-linejoin:miter;stroke-opacity:1"
       d="M 425.41312,419.23644 L 425.41312,425.86557 L 425.41312,425.86557"
       id="path3240" />
    <path
       style="fill:none;fill-rule:evenodd;stroke:#000000;stroke-width:0.7;stroke-linecap:butt;stroke-linejoin:miter;stroke-opacity:1"
       d="M 466.95564,419.23644 L 466.95564,425.86557 L 466.95564,425.86557"
       id="path3242" />
    <path
       style="fill:none;fill-rule:evenodd;stroke:#000000;stroke-width:0.7;stroke-linecap:butt;stroke-linejoin:miter;stroke-opacity:1"
       d="M 504.96263,419.23644 L 504.96263,425.86557 L 504.96263,425.86557"
       id="path3244" />
    <path
       style="fill:none;fill-rule:evenodd;stroke:#000000;stroke-width:0.7;stroke-linecap:butt;stroke-linejoin:miter;stroke-opacity:1"
       d="M 507.96784,419.23644 L 507.96784,425.86557 L 507.96784,425.86557"
       id="path3246" />
    <path
       style="fill:none;fill-rule:evenodd;stroke:#000000;stroke-width:0.7;stroke-linecap:butt;stroke-linejoin:miter;stroke-opacity:1"
       d="M 470.00504,423.65586 L 474.8664,423.65586"
       id="path3248" />
    <path
       style="fill:none;fill-rule:evenodd;stroke:#000000;stroke-width:0.6;stroke-linecap:butt;stroke-linejoin:miter;stroke-opacity:1;stroke-miterlimit:4;stroke-dasharray:none"
       d="M 407.5,527.98718 L 408.25,479.48718 L 410,527.98718 L 410.75,479.48718 L 412.25,527.98718 L 412.75,479.48718 L 414.875,527.98718 L 414.75,479.48718 L 417.25,527.98718 L 417.625,479.48718 L 419.75,527.98718 L 420,479.48718 L 421.875,527.98718 L 421.625,479.48718 L 424,527.98718"
       id="path3254"
       sodipodi:nodetypes="ccccccccccccccc" />
    <path
       style="fill:none;fill-rule:evenodd;stroke:#000000;stroke-width:0.6;stroke-linecap:butt;stroke-linejoin:miter;stroke-opacity:1;stroke-miterlimit:4;stroke-dasharray:none"
       d="M 469.25,527.98718 L 470.5,479.48718 L 472.03667,527.98718"
       id="path3256"
       sodipodi:nodetypes="ccc" />
    <path
       style="fill:none;fill-rule:evenodd;stroke:#000000;stroke-width:0.6;stroke-linecap:butt;stroke-linejoin:miter;stroke-miterlimit:4;stroke-dasharray:none;stroke-opacity:1"
       d="M 262.75132,629.86029 L 472.64011,629.98713"
       id="path3258"
       sodipodi:nodetypes="cc" />
    <path
       style="fill:none;fill-rule:evenodd;stroke:#000000;stroke-width:0.6;stroke-linecap:butt;stroke-linejoin:miter;stroke-opacity:1"
       d="M 472.87766,628.84941 L 472.87766,631.28008 L 472.87766,631.28008 L 472.87766,631.28008"
       id="path3266" />
    <rect
       style="opacity:1;fill:none;fill-opacity:1;stroke:#000000;stroke-width:0.6;stroke-miterlimit:4;stroke-dasharray:none;stroke-opacity:1"
       id="rect3270"
       width="113"
       height="2"
       x="185.625"
       y="514.48718" />
    <path
       style="fill:none;fill-rule:evenodd;stroke:#000000;stroke-width:0.7;stroke-linecap:butt;stroke-linejoin:miter;stroke-opacity:1"
       d="M 241.125,521.11218 L 241.125,534.22969"
       id="path3292"
       sodipodi:nodetypes="cc" />
    <path
       style="fill:none;fill-rule:evenodd;stroke:#000000;stroke-width:0.7;stroke-linecap:butt;stroke-linejoin:miter;stroke-opacity:1"
       d="M 299.75,522.73718 L 299.75,536.73718 L 299.75,536.73718 L 299.75,536.73718 L 299.75,536.73718"
       id="path3294" />
    <path
       style="fill:none;fill-rule:evenodd;stroke:#000000;stroke-width:0.7;stroke-linecap:butt;stroke-linejoin:miter;stroke-opacity:1;stroke-miterlimit:4;stroke-dasharray:none"
       d="M 246.86866,522.91623 L 246.86866,528.00845"
       id="path3298"
       sodipodi:nodetypes="cc" />
    <path
       style="fill:none;fill-rule:evenodd;stroke:#000000;stroke-width:0.7;stroke-linecap:butt;stroke-linejoin:miter;stroke-miterlimit:4;stroke-dasharray:none;stroke-opacity:1"
       d="M 272.23612,522.89496 L 272.23612,527.98718"
       id="path3300"
       sodipodi:nodetypes="cc" />
    <path
       style="fill:none;fill-rule:evenodd;stroke:#000000;stroke-width:0.7;stroke-linecap:butt;stroke-linejoin:miter;stroke-miterlimit:4;stroke-dasharray:none;stroke-opacity:1"
       d="M 283.37305,523.81702 L 283.37305,528.90924"
       id="path3302"
       sodipodi:nodetypes="cc" />
    <path
       style="fill:none;fill-rule:evenodd;stroke:#000000;stroke-width:0.7;stroke-linecap:butt;stroke-linejoin:miter;stroke-miterlimit:4;stroke-dasharray:none;stroke-opacity:1"
       d="M 286.55502,523.81701 L 286.55502,528.90923"
       id="path3304"
       sodipodi:nodetypes="cc" />
    <path
       style="fill:none;fill-rule:evenodd;stroke:#000000;stroke-width:0.7;stroke-linecap:butt;stroke-linejoin:miter;stroke-miterlimit:4;stroke-dasharray:none;stroke-opacity:1"
       d="M 249.29401,525.30246 L 253.42976,525.30246"
       id="path3308"
       sodipodi:nodetypes="cc" />
    <path
       style="fill:none;fill-rule:evenodd;stroke:#000000;stroke-width:0.7;stroke-linecap:butt;stroke-linejoin:miter;stroke-miterlimit:4;stroke-dasharray:none;stroke-opacity:1"
       d="M 254.92915,525.30246 L 260.02137,525.30246"
       id="path3312"
       sodipodi:nodetypes="cc" />
    <path
       style="fill:none;fill-rule:evenodd;stroke:#000000;stroke-width:0.7;stroke-linecap:butt;stroke-linejoin:miter;stroke-miterlimit:4;stroke-dasharray:none;stroke-opacity:1"
       d="M 260.85116,525.30246 L 265.94338,525.30246"
       id="path3314"
       sodipodi:nodetypes="cc" />
    <path
       style="fill:none;fill-rule:evenodd;stroke:#000000;stroke-width:0.7;stroke-linecap:butt;stroke-linejoin:miter;stroke-miterlimit:4;stroke-dasharray:none;stroke-opacity:1"
       d="M 266.28772,525.30246 L 270.93667,525.30246"
       id="path3316"
       sodipodi:nodetypes="cc" />
    <path
       style="fill:none;fill-rule:evenodd;stroke:#000000;stroke-width:0.7;stroke-linecap:butt;stroke-linejoin:miter;stroke-miterlimit:4;stroke-dasharray:none;stroke-opacity:1"
       d="M 274.82464,525.92118 L 279.10515,525.92118"
       id="path3318"
       sodipodi:nodetypes="cc" />
    <path
       style="fill:none;fill-rule:evenodd;stroke:#000000;stroke-width:0.7;stroke-linecap:butt;stroke-linejoin:miter;stroke-miterlimit:4;stroke-dasharray:none;stroke-opacity:1"
       d="M 244.92411,531.93159 L 249.05986,531.93159"
       id="path3320"
       sodipodi:nodetypes="cc" />
    <path
       style="fill:none;fill-rule:evenodd;stroke:#000000;stroke-width:0.7;stroke-linecap:butt;stroke-linejoin:miter;stroke-miterlimit:4;stroke-dasharray:none;stroke-opacity:1"
       d="M 250.01569,531.93159 L 254.15144,531.93159"
       id="path3324"
       sodipodi:nodetypes="cc" />
    <path
       style="fill:none;fill-rule:evenodd;stroke:#000000;stroke-width:0.7;stroke-linecap:butt;stroke-linejoin:miter;stroke-miterlimit:4;stroke-dasharray:none;stroke-opacity:1"
       d="M 255.40738,531.93159 L 259.54313,531.93159"
       id="path3326"
       sodipodi:nodetypes="cc" />
    <path
       style="fill:none;fill-rule:evenodd;stroke:#000000;stroke-width:0.7;stroke-linecap:butt;stroke-linejoin:miter;stroke-miterlimit:4;stroke-dasharray:none;stroke-opacity:1"
       d="M 260.88746,531.93159 L 265.02321,531.93159"
       id="path3328"
       sodipodi:nodetypes="cc" />
    <path
       style="fill:none;fill-rule:evenodd;stroke:#000000;stroke-width:0.7;stroke-linecap:butt;stroke-linejoin:miter;stroke-miterlimit:4;stroke-dasharray:none;stroke-opacity:1"
       d="M 266.04893,531.93159 L 270.18468,531.93159"
       id="path3330"
       sodipodi:nodetypes="cc" />
    <path
       style="fill:none;fill-rule:evenodd;stroke:#000000;stroke-width:0.7;stroke-linecap:butt;stroke-linejoin:miter;stroke-miterlimit:4;stroke-dasharray:none;stroke-opacity:1"
       d="M 270.87535,531.93159 L 275.0111,531.93159"
       id="path3332"
       sodipodi:nodetypes="cc" />
    <path
       style="fill:none;fill-rule:evenodd;stroke:#000000;stroke-width:0.7;stroke-linecap:butt;stroke-linejoin:miter;stroke-miterlimit:4;stroke-dasharray:none;stroke-opacity:1"
       d="M 276.09026,531.93159 L 280.22601,531.93159"
       id="path3334"
       sodipodi:nodetypes="cc" />
    <path
       style="fill:none;fill-rule:evenodd;stroke:#000000;stroke-width:0.7;stroke-linecap:butt;stroke-linejoin:miter;stroke-miterlimit:4;stroke-dasharray:none;stroke-opacity:1"
       d="M 281.65872,531.93159 L 285.79447,531.93159"
       id="path3336"
       sodipodi:nodetypes="cc" />
    <path
       style="fill:none;fill-rule:evenodd;stroke:#000000;stroke-width:0.7;stroke-linecap:butt;stroke-linejoin:miter;stroke-miterlimit:4;stroke-dasharray:none;stroke-opacity:1"
       d="M 286.96202,531.93159 L 291.09777,531.93159"
       id="path3338"
       sodipodi:nodetypes="cc" />
    <path
       style="fill:none;fill-rule:evenodd;stroke:#000000;stroke-width:0.7;stroke-linecap:butt;stroke-linejoin:miter;stroke-miterlimit:4;stroke-dasharray:none;stroke-opacity:1"
       d="M 292.70726,531.93159 L 296.84301,531.93159"
       id="path3340"
       sodipodi:nodetypes="cc" />
    <path
       style="fill:none;fill-rule:evenodd;stroke:#000000;stroke-width:0.7;stroke-linecap:butt;stroke-linejoin:miter;stroke-miterlimit:4;stroke-dasharray:none;stroke-opacity:1"
       d="M 244.92411,536.73718 L 249.05986,536.73718"
       id="path3342"
       sodipodi:nodetypes="cc" />
    <path
       style="fill:none;fill-rule:evenodd;stroke:#000000;stroke-width:0.7;stroke-linecap:butt;stroke-linejoin:miter;stroke-miterlimit:4;stroke-dasharray:none;stroke-opacity:1"
       d="M 250.01569,536.73718 L 254.15144,536.73718"
       id="path3344"
       sodipodi:nodetypes="cc" />
    <path
       style="fill:none;fill-rule:evenodd;stroke:#000000;stroke-width:0.7;stroke-linecap:butt;stroke-linejoin:miter;stroke-miterlimit:4;stroke-dasharray:none;stroke-opacity:1"
       d="M 255.58416,536.73718 L 259.71991,536.73718"
       id="path3346"
       sodipodi:nodetypes="cc" />
    <path
       style="fill:none;fill-rule:evenodd;stroke:#000000;stroke-width:0.7;stroke-linecap:butt;stroke-linejoin:miter;stroke-miterlimit:4;stroke-dasharray:none;stroke-opacity:1"
       d="M 260.97584,536.73718 L 265.11159,536.73718"
       id="path3348"
       sodipodi:nodetypes="cc" />
    <path
       style="fill:none;fill-rule:evenodd;stroke:#000000;stroke-width:0.7;stroke-linecap:butt;stroke-linejoin:miter;stroke-miterlimit:4;stroke-dasharray:none;stroke-opacity:1"
       d="M 266.04893,536.73718 L 270.18468,536.73718"
       id="path3368"
       sodipodi:nodetypes="cc" />
    <path
       style="fill:none;fill-rule:evenodd;stroke:#000000;stroke-width:0.7;stroke-linecap:butt;stroke-linejoin:miter;stroke-miterlimit:4;stroke-dasharray:none;stroke-opacity:1"
       d="M 270.8219,536.73718 L 274.95765,536.73718"
       id="path3370"
       sodipodi:nodetypes="cc" />
    <path
       style="fill:none;fill-rule:evenodd;stroke:#000000;stroke-width:0.7;stroke-linecap:butt;stroke-linejoin:miter;stroke-miterlimit:4;stroke-dasharray:none;stroke-opacity:1"
       d="M 276.03681,536.73718 L 280.17256,536.73718"
       id="path3372"
       sodipodi:nodetypes="cc" />
    <path
       style="fill:none;fill-rule:evenodd;stroke:#000000;stroke-width:0.7;stroke-linecap:butt;stroke-linejoin:miter;stroke-miterlimit:4;stroke-dasharray:none;stroke-opacity:1"
       d="M 281.69366,536.73718 L 285.82941,536.73718"
       id="path3374"
       sodipodi:nodetypes="cc" />
    <path
       style="fill:none;fill-rule:evenodd;stroke:#000000;stroke-width:0.7;stroke-linecap:butt;stroke-linejoin:miter;stroke-miterlimit:4;stroke-dasharray:none;stroke-opacity:1"
       d="M 286.90858,536.73718 L 291.04433,536.73718"
       id="path3376"
       sodipodi:nodetypes="cc" />
    <path
       style="fill:none;fill-rule:evenodd;stroke:#000000;stroke-width:0.7;stroke-linecap:butt;stroke-linejoin:miter;stroke-miterlimit:4;stroke-dasharray:none;stroke-opacity:1"
       d="M 292.65382,536.73718 L 296.78957,536.73718"
       id="path3378"
       sodipodi:nodetypes="cc" />
    <path
       style="fill:none;fill-rule:evenodd;stroke:#000000;stroke-width:0.7;stroke-linecap:butt;stroke-linejoin:miter;stroke-miterlimit:4;stroke-dasharray:none;stroke-opacity:1"
       d="M 244.92411,541.56592 L 249.05986,541.56592"
       id="path3380"
       sodipodi:nodetypes="cc" />
    <path
       style="fill:none;fill-rule:evenodd;stroke:#000000;stroke-width:0.7;stroke-linecap:butt;stroke-linejoin:miter;stroke-miterlimit:4;stroke-dasharray:none;stroke-opacity:1"
       d="M 249.96225,541.56592 L 254.098,541.56592"
       id="path3386"
       sodipodi:nodetypes="cc" />
    <path
       style="fill:none;fill-rule:evenodd;stroke:#000000;stroke-width:0.7;stroke-linecap:butt;stroke-linejoin:miter;stroke-miterlimit:4;stroke-dasharray:none;stroke-opacity:1"
       d="M 255.76094,541.56592 L 259.89669,541.56592"
       id="path3388"
       sodipodi:nodetypes="cc" />
    <path
       style="fill:none;fill-rule:evenodd;stroke:#000000;stroke-width:0.7;stroke-linecap:butt;stroke-linejoin:miter;stroke-miterlimit:4;stroke-dasharray:none;stroke-opacity:1"
       d="M 260.83401,541.56592 L 264.96976,541.56592"
       id="path3390"
       sodipodi:nodetypes="cc" />
    <path
       style="fill:none;fill-rule:evenodd;stroke:#000000;stroke-width:0.7;stroke-linecap:butt;stroke-linejoin:miter;stroke-miterlimit:4;stroke-dasharray:none;stroke-opacity:1"
       d="M 266.04893,541.56592 L 270.18468,541.56592"
       id="path3392"
       sodipodi:nodetypes="cc" />
    <path
       style="fill:none;fill-rule:evenodd;stroke:#000000;stroke-width:0.7;stroke-linecap:butt;stroke-linejoin:miter;stroke-miterlimit:4;stroke-dasharray:none;stroke-opacity:1"
       d="M 270.8219,541.56592 L 274.95765,541.56592"
       id="path3394"
       sodipodi:nodetypes="cc" />
    <path
       style="fill:none;fill-rule:evenodd;stroke:#000000;stroke-width:0.7;stroke-linecap:butt;stroke-linejoin:miter;stroke-miterlimit:4;stroke-dasharray:none;stroke-opacity:1"
       d="M 276.03681,541.56592 L 280.17256,541.56592"
       id="path3396"
       sodipodi:nodetypes="cc" />
    <path
       style="fill:none;fill-rule:evenodd;stroke:#000000;stroke-width:0.7;stroke-linecap:butt;stroke-linejoin:miter;stroke-miterlimit:4;stroke-dasharray:none;stroke-opacity:1"
       d="M 281.69366,541.56592 L 285.82941,541.56592"
       id="path3398"
       sodipodi:nodetypes="cc" />
    <path
       style="fill:none;fill-rule:evenodd;stroke:#000000;stroke-width:0.7;stroke-linecap:butt;stroke-linejoin:miter;stroke-miterlimit:4;stroke-dasharray:none;stroke-opacity:1"
       d="M 286.90858,541.56592 L 291.04433,541.56592"
       id="path3400"
       sodipodi:nodetypes="cc" />
    <path
       style="fill:none;fill-rule:evenodd;stroke:#000000;stroke-width:0.7;stroke-linecap:butt;stroke-linejoin:miter;stroke-miterlimit:4;stroke-dasharray:none;stroke-opacity:1"
       d="M 292.65382,541.56592 L 296.78957,541.56592"
       id="path3402"
       sodipodi:nodetypes="cc" />
    <path
       style="fill:none;fill-rule:evenodd;stroke:#000000;stroke-width:0.7;stroke-linecap:butt;stroke-linejoin:miter;stroke-miterlimit:4;stroke-dasharray:none;stroke-opacity:1"
       d="M 244.92411,546.29469 L 249.05986,546.29469"
       id="path3404"
       sodipodi:nodetypes="cc" />
    <path
       style="fill:none;fill-rule:evenodd;stroke:#000000;stroke-width:0.7;stroke-linecap:butt;stroke-linejoin:miter;stroke-miterlimit:4;stroke-dasharray:none;stroke-opacity:1"
       d="M 249.96225,546.29469 L 254.098,546.29469"
       id="path3408"
       sodipodi:nodetypes="cc" />
    <path
       style="fill:none;fill-rule:evenodd;stroke:#000000;stroke-width:0.7;stroke-linecap:butt;stroke-linejoin:miter;stroke-miterlimit:4;stroke-dasharray:none;stroke-opacity:1"
       d="M 255.53071,546.29469 L 259.66646,546.29469"
       id="path3410"
       sodipodi:nodetypes="cc" />
    <path
       style="fill:none;fill-rule:evenodd;stroke:#000000;stroke-width:0.7;stroke-linecap:butt;stroke-linejoin:miter;stroke-miterlimit:4;stroke-dasharray:none;stroke-opacity:1"
       d="M 260.83401,546.29469 L 264.96976,546.29469"
       id="path3412"
       sodipodi:nodetypes="cc" />
    <path
       style="fill:none;fill-rule:evenodd;stroke:#000000;stroke-width:0.7;stroke-linecap:butt;stroke-linejoin:miter;stroke-opacity:1"
       d="M 398.5,395.36218 L 398.5,404.73718"
       id="path3422" />
    <path
       style="fill:none;fill-rule:evenodd;stroke:#000000;stroke-width:0.7;stroke-linecap:butt;stroke-linejoin:miter;stroke-opacity:1"
       d="M 448.125,395.36218 L 448.125,405.79968"
       id="path3424" />
    <path
       style="fill:none;fill-rule:evenodd;stroke:#000000;stroke-width:0.7;stroke-linecap:butt;stroke-linejoin:miter;stroke-opacity:1"
       d="M 403.75,395.36218 C 403.75,400.98718 403.75,400.98718 403.75,400.98718 L 403.75,400.98718"
       id="path3440" />
    <path
       style="fill:none;fill-rule:evenodd;stroke:#000000;stroke-width:0.7;stroke-linecap:butt;stroke-linejoin:miter;stroke-opacity:1"
       d="M 411.6875,395.36218 C 411.6875,400.98718 411.6875,400.98718 411.6875,400.98718"
       id="path3442" />
    <path
       style="fill:none;fill-rule:evenodd;stroke:#000000;stroke-width:0.7;stroke-linecap:butt;stroke-linejoin:miter;stroke-opacity:1"
       d="M 413.6875,395.36218 C 413.6875,400.98718 413.6875,400.98718 413.6875,400.98718"
       id="path3444" />
    <path
       style="fill:none;fill-rule:evenodd;stroke:#000000;stroke-width:0.7;stroke-linecap:butt;stroke-linejoin:miter;stroke-opacity:1"
       d="M 421.4375,395.36218 L 421.4375,400.98718"
       id="path3446" />
    <path
       style="fill:none;fill-rule:evenodd;stroke:#000000;stroke-width:0.7;stroke-linecap:butt;stroke-linejoin:miter;stroke-opacity:1"
       d="M 432.875,396.17468 L 432.875,401.42468 L 432.875,401.48718"
       id="path3448" />
    <path
       style="fill:none;fill-rule:evenodd;stroke:#000000;stroke-width:0.7;stroke-linecap:butt;stroke-linejoin:miter;stroke-opacity:1"
       d="M 435.5,396.23718 L 435.5,401.54968"
       id="path3450"
       sodipodi:nodetypes="cc" />
    <path
       style="fill:none;fill-rule:evenodd;stroke:#000000;stroke-width:0.7;stroke-linecap:butt;stroke-linejoin:miter;stroke-opacity:1"
       d="M 405.3125,398.54968 L 409.5,398.54968 L 409.5,398.54968"
       id="path3460" />
    <path
       style="fill:none;fill-rule:evenodd;stroke:#000000;stroke-width:0.7;stroke-linecap:butt;stroke-linejoin:miter;stroke-opacity:1"
       d="M 415.15625,398.54968 L 419.34375,398.54968 L 419.34375,398.54968"
       id="path3462" />
    <path
       style="fill:none;fill-rule:evenodd;stroke:#000000;stroke-width:0.7;stroke-linecap:butt;stroke-linejoin:miter;stroke-opacity:1"
       d="M 423.02663,398.54968 L 427.21413,398.54968 L 427.21413,398.54968"
       id="path3464" />
    <path
       style="fill:none;fill-rule:evenodd;stroke:#000000;stroke-width:0.7;stroke-linecap:butt;stroke-linejoin:miter;stroke-opacity:1"
       d="M 427.71875,398.54968 L 431.90625,398.54968 L 431.90625,398.54968"
       id="path3466" />
    <path
       style="fill:none;fill-rule:evenodd;stroke:#000000;stroke-width:0.7;stroke-linecap:butt;stroke-linejoin:miter;stroke-opacity:1"
       d="M 436.53125,398.54968 L 440.71875,398.54968 L 440.71875,398.54968"
       id="path3468" />
    <path
       style="fill:none;fill-rule:evenodd;stroke:#000000;stroke-width:0.7;stroke-linecap:butt;stroke-linejoin:miter;stroke-opacity:1"
       d="M 441.78125,398.54968 L 445.96875,398.54968 L 445.96875,398.54968"
       id="path3470" />
    <path
       style="fill:none;fill-rule:evenodd;stroke:#000000;stroke-width:0.7;stroke-linecap:butt;stroke-linejoin:miter;stroke-opacity:1"
       d="M 401.68749,404.23718 L 405.87499,404.23718 L 405.87499,404.23718"
       id="path3472" />
    <path
       style="fill:none;fill-rule:evenodd;stroke:#000000;stroke-width:0.7;stroke-linecap:butt;stroke-linejoin:miter;stroke-opacity:1"
       d="M 407.5,404.23718 L 411.6875,404.23718 L 411.6875,404.23718"
       id="path3474" />
    <path
       style="fill:none;fill-rule:evenodd;stroke:#000000;stroke-width:0.7;stroke-linecap:butt;stroke-linejoin:miter;stroke-opacity:1"
       d="M 413.1875,404.23718 L 417.375,404.23718 L 417.375,404.23718"
       id="path3476" />
    <path
       style="fill:none;fill-rule:evenodd;stroke:#000000;stroke-width:0.7;stroke-linecap:butt;stroke-linejoin:miter;stroke-opacity:1"
       d="M 418.46413,404.23718 L 422.65163,404.23718 L 422.65163,404.23718"
       id="path3480" />
    <path
       style="fill:none;fill-rule:evenodd;stroke:#000000;stroke-width:0.7;stroke-linecap:butt;stroke-linejoin:miter;stroke-opacity:1"
       d="M 423.71875,404.23718 L 427.90625,404.23718 L 427.90625,404.23718"
       id="path3482" />
    <path
       style="fill:none;fill-rule:evenodd;stroke:#000000;stroke-width:0.7;stroke-linecap:butt;stroke-linejoin:miter;stroke-opacity:1"
       d="M 428.875,404.23718 L 433.0625,404.23718 L 433.0625,404.23718"
       id="path3484" />
    <path
       style="fill:none;fill-rule:evenodd;stroke:#000000;stroke-width:0.7;stroke-linecap:butt;stroke-linejoin:miter;stroke-opacity:1"
       d="M 434.25,404.23718 L 438.4375,404.23718 L 438.4375,404.23718"
       id="path3486" />
    <path
       style="fill:none;fill-rule:evenodd;stroke:#000000;stroke-width:0.7;stroke-linecap:butt;stroke-linejoin:miter;stroke-opacity:1"
       d="M 439.53125,404.23718 L 443.71875,404.23718 L 443.71875,404.23718"
       id="path3488" />
    <path
       style="fill:none;fill-rule:evenodd;stroke:#000000;stroke-width:0.7;stroke-linecap:butt;stroke-linejoin:miter;stroke-opacity:1"
       d="M 413.1875,408.42468 L 417.375,408.42468 L 417.375,408.42468"
       id="path3490" />
    <path
       style="fill:none;fill-rule:evenodd;stroke:#000000;stroke-width:0.7;stroke-linecap:butt;stroke-linejoin:miter;stroke-opacity:1"
       d="M 418.4375,408.42468 L 422.625,408.42468 L 422.625,408.42468"
       id="path3492" />
    <path
       style="fill:none;fill-rule:evenodd;stroke:#000000;stroke-width:0.7;stroke-linecap:butt;stroke-linejoin:miter;stroke-opacity:1"
       d="M 423.6875,408.42468 L 427.875,408.42468 L 427.875,408.42468"
       id="path3494" />
    <path
       style="fill:none;fill-rule:evenodd;stroke:#000000;stroke-width:0.7;stroke-linecap:butt;stroke-linejoin:miter;stroke-opacity:1"
       d="M 428.875,408.42468 L 433.0625,408.42468 L 433.0625,408.42468"
       id="path3496" />
    <path
       style="fill:none;fill-rule:evenodd;stroke:#000000;stroke-width:0.6;stroke-linecap:butt;stroke-linejoin:miter;stroke-miterlimit:4;stroke-dasharray:none;stroke-opacity:1"
       d="M 412.47694,473.86045 C 415.64461,473.86045 415.72187,473.86045 415.72187,473.86045"
       id="path3520" />
    <path
       style="fill:none;fill-rule:evenodd;stroke:#000000;stroke-width:0.6;stroke-linecap:butt;stroke-linejoin:miter;stroke-miterlimit:4;stroke-dasharray:none;stroke-opacity:1"
       d="M 405.83302,476.33532 C 408.84861,476.33532 408.92216,476.33532 408.92216,476.33532"
       id="path3522" />
    <path
       style="fill:none;fill-rule:evenodd;stroke:#000000;stroke-width:0.6;stroke-linecap:butt;stroke-linejoin:miter;stroke-miterlimit:4;stroke-dasharray:none;stroke-opacity:1"
       d="M 409.65642,476.33532 C 412.67201,476.33532 412.74556,476.33532 412.74556,476.33532"
       id="path3524" />
    <path
       style="fill:none;fill-rule:evenodd;stroke:#000000;stroke-width:0.6;stroke-linecap:butt;stroke-linejoin:miter;stroke-miterlimit:4;stroke-dasharray:none;stroke-opacity:1"
       d="M 413.28125,476.33532 C 416.29684,476.33532 416.37039,476.33532 416.37039,476.33532"
       id="path3526" />
    <path
       style="fill:none;fill-rule:evenodd;stroke:#000000;stroke-width:0.6;stroke-linecap:butt;stroke-linejoin:miter;stroke-miterlimit:4;stroke-dasharray:none;stroke-opacity:1"
       d="M 410.82904,471.92722 C 410.82904,475.09489 410.82904,475.17215 410.82904,475.17215"
       id="path3528" />
    <path
       style="fill:none;fill-rule:evenodd;stroke:#000000;stroke-width:0.6;stroke-linecap:butt;stroke-linejoin:miter;stroke-miterlimit:4;stroke-dasharray:none;stroke-opacity:1"
       d="M 469.21177,476.33532 C 472.22736,476.33532 472.30091,476.33532 472.30091,476.33532"
       id="path3530" />
    <path
       style="fill:none;fill-rule:evenodd;stroke:#000000;stroke-width:0.6;stroke-linecap:butt;stroke-linejoin:miter;stroke-miterlimit:4;stroke-dasharray:none;stroke-opacity:1"
       d="M 470.44698,475.71438 C 470.44698,472.69879 470.44698,472.62524 470.44698,472.62524"
       id="path3532" />
    <path
       style="fill:none;fill-rule:evenodd;stroke:#000000;stroke-width:0.6;stroke-linecap:butt;stroke-linejoin:miter;stroke-miterlimit:4;stroke-dasharray:none;stroke-opacity:1"
       d="M 470.44698,472.13465 C 470.44698,469.11906 470.44698,469.04551 470.44698,469.04551"
       id="path3536" />
    <path
       style="fill:none;fill-rule:evenodd;stroke:#000000;stroke-width:0.6;stroke-linecap:butt;stroke-linejoin:miter;stroke-miterlimit:4;stroke-dasharray:none;stroke-opacity:1"
       d="M 470.44698,468.51295 C 470.44698,465.49736 470.44698,465.42381 470.44698,465.42381"
       id="path3538" />
    <path
       style="fill:none;fill-rule:evenodd;stroke:#000000;stroke-width:0.6;stroke-linecap:butt;stroke-linejoin:miter;stroke-miterlimit:4;stroke-dasharray:none;stroke-opacity:1"
       d="M 470.44698,464.88681 C 470.44698,461.87122 470.44698,461.79767 470.44698,461.79767"
       id="path3540" />
    <path
       style="fill:none;fill-rule:evenodd;stroke:#000000;stroke-width:0.6;stroke-linecap:butt;stroke-linejoin:miter;stroke-miterlimit:4;stroke-dasharray:none;stroke-opacity:1"
       d="M 470.44698,461.17672 C 470.44698,458.16113 470.44698,458.08758 470.44698,458.08758"
       id="path3542" />
    <path
       style="fill:none;fill-rule:evenodd;stroke:#000000;stroke-width:0.6;stroke-linecap:butt;stroke-linejoin:miter;stroke-miterlimit:4;stroke-dasharray:none;stroke-opacity:1"
       d="M 472.92185,472.13687 C 472.92185,469.12128 472.92185,469.04773 472.92185,469.04773"
       id="path3544" />
    <path
       style="fill:none;fill-rule:evenodd;stroke:#000000;stroke-width:0.6;stroke-linecap:butt;stroke-linejoin:miter;stroke-miterlimit:4;stroke-dasharray:none;stroke-opacity:1"
       d="M 472.92185,468.51295 C 472.92185,465.49736 472.92185,465.42381 472.92185,465.42381"
       id="path3550" />
    <path
       style="fill:none;fill-rule:evenodd;stroke:#000000;stroke-width:0.6;stroke-linecap:butt;stroke-linejoin:miter;stroke-miterlimit:4;stroke-dasharray:none;stroke-opacity:1"
       d="M 472.92185,464.84483 C 472.92185,461.82924 472.92185,461.75569 472.92185,461.75569"
       id="path3552" />
    <path
       style="fill:none;fill-rule:evenodd;stroke:#000000;stroke-width:0.6;stroke-linecap:butt;stroke-linejoin:miter;stroke-miterlimit:4;stroke-dasharray:none;stroke-opacity:1"
       d="M 472.87766,461.17672 C 472.87766,458.16113 472.87766,458.08758 472.87766,458.08758"
       id="path3554" />
    <path
       style="fill:none;fill-rule:evenodd;stroke:#000000;stroke-width:0.7;stroke-linecap:butt;stroke-linejoin:miter;stroke-miterlimit:4;stroke-dasharray:none;stroke-opacity:1"
       d="M 232.54533,350.21412 L 233.06305,355.27997"
       id="path3560"
       sodipodi:nodetypes="cc" />
    <path
       style="fill:none;fill-rule:evenodd;stroke:#000000;stroke-width:0.7;stroke-linecap:butt;stroke-linejoin:miter;stroke-miterlimit:4;stroke-dasharray:none;stroke-opacity:1"
       d="M 204.64799,361.00809 L 208.00763,364.83479"
       id="path3562"
       sodipodi:nodetypes="cc" />
    <path
       style="fill:none;fill-rule:evenodd;stroke:#000000;stroke-width:0.7;stroke-linecap:butt;stroke-linejoin:miter;stroke-miterlimit:4;stroke-dasharray:none;stroke-opacity:1"
       d="M 228.23317,350.98193 L 229.14183,355.99243"
       id="path3564"
       sodipodi:nodetypes="cc" />
    <path
       style="fill:none;fill-rule:evenodd;stroke:#000000;stroke-width:0.7;stroke-linecap:butt;stroke-linejoin:miter;stroke-miterlimit:4;stroke-dasharray:none;stroke-opacity:1"
       d="M 294.18225,379.09363 L 289.88025,381.81823"
       id="path3566"
       sodipodi:nodetypes="cc" />
    <path
       style="fill:none;fill-rule:evenodd;stroke:#000000;stroke-width:0.7;stroke-linecap:butt;stroke-linejoin:miter;stroke-miterlimit:4;stroke-dasharray:none;stroke-opacity:1"
       d="M 281.53062,364.2264 L 278.40688,368.24796"
       id="path3568"
       sodipodi:nodetypes="cc" />
    <path
       style="fill:none;fill-rule:evenodd;stroke:#000000;stroke-width:0.7;stroke-linecap:butt;stroke-linejoin:miter;stroke-miterlimit:4;stroke-dasharray:none;stroke-opacity:1"
       d="M 278.65741,362.12751 L 275.46759,366.09685"
       id="path3570"
       sodipodi:nodetypes="cc" />
    <path
       style="fill:none;fill-rule:evenodd;stroke:#000000;stroke-width:0.7;stroke-linecap:butt;stroke-linejoin:miter;stroke-opacity:1"
       d="M 197.60418,372.0844 L 203.64675,366.11505"
       id="path3453"
       sodipodi:nodetypes="cc" />
    <path
       style="fill:none;fill-rule:evenodd;stroke:#000000;stroke-width:0.7;stroke-linecap:butt;stroke-linejoin:miter;stroke-opacity:1"
       d="M 191.35414,380.45026 L 196.27087,373.52411"
       id="path3455"
       sodipodi:nodetypes="cc" />
    <path
       style="fill:none;fill-rule:evenodd;stroke:#000000;stroke-width:0.7;stroke-linecap:butt;stroke-linejoin:miter;stroke-opacity:1"
       d="M 186.30056,390.4468 L 189.95885,382.78113"
       id="path3457"
       sodipodi:nodetypes="cc" />
    <path
       style="fill:none;fill-rule:evenodd;stroke:#000000;stroke-width:0.7;stroke-linecap:butt;stroke-linejoin:miter;stroke-opacity:1"
       d="M 183.30459,401.81504 L 185.19542,393.53433"
       id="path3459"
       sodipodi:nodetypes="cc" />
    <path
       style="fill:none;fill-rule:evenodd;stroke:#000000;stroke-width:0.7;stroke-linecap:butt;stroke-linejoin:miter;stroke-opacity:1"
       d="M 182.51797,415.35829 L 182.51624,406.86444"
       id="path3461"
       sodipodi:nodetypes="cc" />
    <path
       style="fill:none;fill-rule:evenodd;stroke:#000000;stroke-width:0.7;stroke-linecap:butt;stroke-linejoin:miter;stroke-opacity:1"
       d="M 184.81874,429.00274 L 183.07157,420.69053"
       id="path3463"
       sodipodi:nodetypes="cc" />
    <path
       style="fill:none;fill-rule:evenodd;stroke:#000000;stroke-width:0.7;stroke-linecap:butt;stroke-linejoin:miter;stroke-opacity:1"
       d="M 189.42208,440.4588 L 186.05163,432.66231"
       id="path3465"
       sodipodi:nodetypes="cc" />
    <path
       style="fill:none;fill-rule:evenodd;stroke:#000000;stroke-width:0.7;stroke-linecap:butt;stroke-linejoin:miter;stroke-opacity:1"
       d="M 195.9764,450.06156 L 191.07619,443.12373"
       id="path3467"
       sodipodi:nodetypes="cc" />
    <path
       style="fill:none;fill-rule:evenodd;stroke:#000000;stroke-width:0.7;stroke-linecap:butt;stroke-linejoin:miter;stroke-opacity:1"
       d="M 205.46892,459.47556 L 199.17103,453.77627"
       id="path3469"
       sodipodi:nodetypes="cc" />
    <path
       style="fill:none;fill-rule:evenodd;stroke:#000000;stroke-width:0.7;stroke-linecap:butt;stroke-linejoin:miter;stroke-opacity:1"
       d="M 216.96646,466.52269 L 209.50731,462.45986"
       id="path3471"
       sodipodi:nodetypes="cc" />
    <path
       style="fill:none;fill-rule:evenodd;stroke:#000000;stroke-width:0.7;stroke-linecap:butt;stroke-linejoin:miter;stroke-opacity:1"
       d="M 226.6691,469.88594 L 218.63139,467.13995"
       id="path3473"
       sodipodi:nodetypes="cc" />
    <path
       style="fill:none;fill-rule:evenodd;stroke:#000000;stroke-width:0.7;stroke-linecap:butt;stroke-linejoin:miter;stroke-opacity:1"
       d="M 236.9072,471.46417 L 228.45745,470.59986"
       id="path3475"
       sodipodi:nodetypes="cc" />
    <path
       style="fill:none;fill-rule:evenodd;stroke:#000000;stroke-width:0.7;stroke-linecap:butt;stroke-linejoin:miter;stroke-opacity:1"
       d="M 247.09419,471.75475 L 238.60042,471.78906"
       id="path3477"
       sodipodi:nodetypes="cc" />
    <path
       style="fill:none;fill-rule:evenodd;stroke:#000000;stroke-width:0.7;stroke-linecap:butt;stroke-linejoin:miter;stroke-opacity:1"
       d="M 257.25317,469.83505 L 248.9469,471.61026"
       id="path3479"
       sodipodi:nodetypes="cc" />
    <path
       style="fill:none;fill-rule:evenodd;stroke:#000000;stroke-width:0.7;stroke-linecap:butt;stroke-linejoin:miter;stroke-opacity:1"
       d="M 266.0782,466.6604 L 258.05623,469.45209"
       id="path3481"
       sodipodi:nodetypes="cc" />
    <path
       style="fill:none;fill-rule:evenodd;stroke:#000000;stroke-width:0.7;stroke-linecap:butt;stroke-linejoin:miter;stroke-opacity:1"
       d="M 276.21545,460.90992 L 268.96388,465.33259"
       id="path3483"
       sodipodi:nodetypes="cc" />
    <path
       style="fill:none;fill-rule:evenodd;stroke:#000000;stroke-width:0.7;stroke-linecap:butt;stroke-linejoin:miter;stroke-opacity:1"
       d="M 284.74769,452.96453 L 278.62074,458.84718"
       id="path3485"
       sodipodi:nodetypes="cc" />
    <path
       style="fill:none;fill-rule:evenodd;stroke:#000000;stroke-width:0.7;stroke-linecap:butt;stroke-linejoin:miter;stroke-opacity:1"
       d="M 292.17295,443.18611 L 287.47782,450.26434"
       id="path3487"
       sodipodi:nodetypes="cc" />
    <path
       style="fill:none;fill-rule:evenodd;stroke:#000000;stroke-width:0.7;stroke-linecap:butt;stroke-linejoin:miter;stroke-opacity:1"
       d="M 293.54155,440.73321 L 297.06938,433.00664"
       id="path3489"
       sodipodi:nodetypes="cc" />
    <path
       style="fill:none;fill-rule:evenodd;stroke:#000000;stroke-width:0.7;stroke-linecap:butt;stroke-linejoin:miter;stroke-opacity:1"
       d="M 210.00926,361.36932 L 217.43679,357.24897"
       id="path3491"
       sodipodi:nodetypes="cc" />
    <path
       style="fill:none;fill-rule:evenodd;stroke:#000000;stroke-width:0.7;stroke-linecap:butt;stroke-linejoin:miter;stroke-opacity:1"
       d="M 218.66488,356.71064 L 226.63561,353.77593"
       id="path3493"
       sodipodi:nodetypes="cc" />
    <path
       style="fill:none;fill-rule:evenodd;stroke:#000000;stroke-width:0.7;stroke-linecap:butt;stroke-linejoin:miter;stroke-opacity:1"
       d="M 243.69046,352.7451 L 235.19761,352.61495"
       id="path3495"
       sodipodi:nodetypes="cc" />
    <path
       style="fill:none;fill-rule:evenodd;stroke:#000000;stroke-width:0.7;stroke-linecap:butt;stroke-linejoin:miter;stroke-opacity:1"
       d="M 255.31492,353.99207 L 246.90767,352.7822"
       id="path3497"
       sodipodi:nodetypes="cc" />
    <path
       style="fill:none;fill-rule:evenodd;stroke:#000000;stroke-width:0.7;stroke-linecap:butt;stroke-linejoin:miter;stroke-opacity:1"
       d="M 265.68241,357.48454 L 257.5766,354.94657"
       id="path3499"
       sodipodi:nodetypes="cc" />
    <path
       style="fill:none;fill-rule:evenodd;stroke:#000000;stroke-width:0.7;stroke-linecap:butt;stroke-linejoin:miter;stroke-opacity:1"
       d="M 274.64043,362.81603 L 267.32384,358.50176"
       id="path3501"
       sodipodi:nodetypes="cc" />
    <path
       style="fill:none;fill-rule:evenodd;stroke:#000000;stroke-width:0.7;stroke-linecap:butt;stroke-linejoin:miter;stroke-opacity:1"
       d="M 285.90207,372.83758 L 280.86523,367.76206"
       id="path3503"
       sodipodi:nodetypes="cc" />
    <path
       style="fill:none;fill-rule:evenodd;stroke:#000000;stroke-width:0.7;stroke-linecap:butt;stroke-linejoin:miter;stroke-opacity:1"
       d="M 291.25576,379.82022 L 286.8668,373.9735"
       id="path3505"
       sodipodi:nodetypes="cc" />
    <path
       sodipodi:type="arc"
       style="opacity:1;fill:#ffffff;fill-opacity:1;stroke:#000000;stroke-width:0.6;stroke-miterlimit:4;stroke-dasharray:none;stroke-opacity:1"
       id="path3517"
       sodipodi:cx="297.02905"
       sodipodi:cy="396.46585"
       sodipodi:rx="5.9220195"
       sodipodi:ry="4.9161491"
       d="M 302.95107,396.46585 A 5.9220195,4.9161491 0 1 1 291.10703,396.46585 A 5.9220195,4.9161491 0 1 1 302.95107,396.46585 z"
       transform="matrix(0.9966202,0,0,1.2890341,0.7387425,-116.4704)" />
    <path
       sodipodi:type="arc"
       style="opacity:1;fill:#ffffff;fill-opacity:1;stroke:#000000;stroke-width:0.6;stroke-miterlimit:4;stroke-dasharray:none;stroke-opacity:1"
       id="path3519"
       sodipodi:cx="297.02905"
       sodipodi:cy="396.46585"
       sodipodi:rx="5.9220195"
       sodipodi:ry="4.9161491"
       d="M 302.95107,396.46585 A 5.9220195,4.9161491 0 1 1 291.10703,396.46585 A 5.9220195,4.9161491 0 1 1 302.95107,396.46585 z"
       transform="matrix(0.7935157,0,0,1.0263376,61.02247,-12.218748)" />
    <path
       style="opacity:1;fill:#ffffff;fill-opacity:1;stroke:#000000;stroke-width:0.6;stroke-miterlimit:4;stroke-dasharray:none;stroke-opacity:1"
       d="M 293.125,388.20595 C 293.125,387.31531 293.9375,387.33093 296.80078,387.31531 C 299.6875,387.29956 300.47656,387.31531 300.5,388.20595 C 300.52344,389.09659 300.46875,418.59563 300.46875,418.59563 C 300.46875,418.59563 298.61245,419.23644 298.61245,419.23644 C 298.61245,419.23644 298.61245,414.39718 298.61245,414.39718 C 298.61245,414.41929 294.97807,414.39718 294.97807,414.39718 C 294.97807,414.39718 295.00932,419.23644 295.00932,419.23644 C 295.00932,419.23644 293.15382,418.59563 293.15382,418.59563 C 293.15382,418.59563 293.125,389.09659 293.125,388.20595 z"
       id="rect3507"
       sodipodi:nodetypes="cszcsccscz" />
    <rect
       style="opacity:1;fill:#ffffff;fill-opacity:1;stroke:#000000;stroke-width:0.6;stroke-miterlimit:4;stroke-dasharray:none;stroke-opacity:1"
       id="rect3514"
       width="2.6516504"
       height="6.8942909"
       x="295.42603"
       y="414.41458" />
    <path
       style="fill:none;fill-rule:evenodd;stroke:#000000;stroke-width:0.6;stroke-linecap:butt;stroke-linejoin:miter;stroke-miterlimit:4;stroke-dasharray:none;stroke-opacity:1"
       d="M 294.05823,392.36218 L 294.05823,400.92468 L 294.05823,400.92468"
       id="path3521" />
    <path
       style="fill:none;fill-rule:evenodd;stroke:#000000;stroke-width:0.6;stroke-linecap:butt;stroke-linejoin:miter;stroke-miterlimit:4;stroke-dasharray:none;stroke-opacity:1"
       d="M 294.02698,402.76843 C 294.02698,409.57434 294.02698,409.66272 294.02698,409.66272"
       id="path3523" />
    <path
       style="fill:none;fill-rule:evenodd;stroke:#000000;stroke-width:0.6;stroke-linecap:butt;stroke-linejoin:miter;stroke-miterlimit:4;stroke-dasharray:none;stroke-opacity:1"
       d="M 299.1875,392.36218 L 299.1875,400.92468 L 299.1875,400.92468"
       id="path3527" />
    <path
       style="fill:none;fill-rule:evenodd;stroke:#000000;stroke-width:0.6;stroke-linecap:butt;stroke-linejoin:miter;stroke-miterlimit:4;stroke-dasharray:none;stroke-opacity:1"
       d="M 299.19992,402.76843 C 299.19992,409.57434 299.19992,409.66272 299.19992,409.66272"
       id="path3533" />
    <rect
       style="opacity:1;fill:#ffffff;fill-opacity:1;stroke:#000000;stroke-width:0.6;stroke-miterlimit:4;stroke-dasharray:none;stroke-opacity:1"
       id="rect3535"
       width="2.1115489"
       height="5.4993472"
       x="295.65216"
       y="392.70975" />
    <rect
       style="opacity:1;fill:#ffffff;fill-opacity:1;stroke:#000000;stroke-width:0.6;stroke-miterlimit:4;stroke-dasharray:none;stroke-opacity:1"
       id="rect3537"
       width="2.2097087"
       height="4.1875"
       x="295.48761"
       y="404.23718" />
    <path
       style="fill:none;fill-rule:evenodd;stroke:#000000;stroke-width:0.6;stroke-linecap:butt;stroke-linejoin:miter;stroke-miterlimit:4;stroke-dasharray:none;stroke-opacity:1"
       d="M 293.28568,418.59563 C 293.28568,418.59563 292.5072,411.02182 296.70204,411.02181 C 300.89688,411.02181 300.46875,418.59563 300.46875,418.59563"
       id="path3541"
       sodipodi:nodetypes="czc" />
    <path
       style="fill:none;fill-rule:evenodd;stroke:#000000;stroke-width:0.6;stroke-linecap:butt;stroke-linejoin:miter;stroke-opacity:1;stroke-miterlimit:4;stroke-dasharray:none"
       d="M 294.0625,390.76843 C 294.0625,391.89343 294.0625,391.89343 294.0625,391.89343"
       id="path3547" />
    <path
       style="fill:none;fill-rule:evenodd;stroke:#000000;stroke-width:0.6;stroke-linecap:butt;stroke-linejoin:miter;stroke-opacity:1;stroke-miterlimit:4;stroke-dasharray:none"
       d="M 299.1875,391.01843 C 299.1875,391.76843 299.1875,391.73718 299.1875,391.73718"
       id="path3549" />
    <path
       style="fill:none;fill-rule:evenodd;stroke:#000000;stroke-width:0.5;stroke-linecap:butt;stroke-linejoin:miter;stroke-opacity:1;stroke-miterlimit:4;stroke-dasharray:none"
       d="M 294.0625,410.04968 C 294.0625,411.01633 294.0625,411.01633 294.0625,411.01633 L 294.0625,411.01633"
       id="path3551" />
    <path
       style="fill:none;fill-rule:evenodd;stroke:#000000;stroke-width:0.6;stroke-linecap:butt;stroke-linejoin:miter;stroke-opacity:1;stroke-miterlimit:4;stroke-dasharray:none"
       d="M 299.1875,410.11218 C 299.1875,411.33093 299.1875,411.29968 299.1875,411.29968"
       id="path3553" />
    <path
       style="fill:none;fill-rule:evenodd;stroke:#000000;stroke-width:0.6;stroke-linecap:butt;stroke-linejoin:miter;stroke-opacity:1;stroke-miterlimit:4;stroke-dasharray:none"
       d="M 293.125,389.6122 C 293.125,390.06532 293.84375,390.20744 296.59375,390.20984 C 299.59375,390.21246 300.5,390.08094 300.5,389.6122"
       id="path3557"
       sodipodi:nodetypes="csc" />
    <rect
       style="opacity:1;fill:#ffffff;fill-opacity:1;stroke:#000000;stroke-width:0.6;stroke-miterlimit:4;stroke-dasharray:none;stroke-opacity:1"
       id="rect3561"
       width="6.28125"
       height="1.625"
       x="293.65625"
       y="388.01843"
       ry="0.5" />
    <path
       style="fill:none;fill-rule:evenodd;stroke:#000000;stroke-width:0.6;stroke-linecap:butt;stroke-linejoin:miter;stroke-miterlimit:4;stroke-dasharray:none;stroke-opacity:1"
       d="M 293.125,418.26843 L 291.15625,416.38987 L 292.9375,416.66196 L 291.15625,414.28696 L 292.9375,414.56821 L 291.15625,411.97446 L 293.125,412.48718 L 293.125,412.48718"
       id="path3513"
       sodipodi:nodetypes="cccccccc" />
    <path
       style="fill:none;fill-rule:evenodd;stroke:#000000;stroke-width:0.6;stroke-linecap:butt;stroke-linejoin:miter;stroke-miterlimit:4;stroke-dasharray:none;stroke-opacity:1"
       d="M 300.46875,418.26843 L 302.28125,416.07737 L 300.65625,416.35862 L 302.28125,414.29209 L 300.65625,414.75571 L 302.28125,412.22446 L 300.46875,412.48718 L 300.46875,412.48718"
       id="path3515"
       sodipodi:nodetypes="cccccccc" />
    <path
       sodipodi:type="arc"
       style="opacity:1;fill:none;fill-opacity:1;stroke:#000000;stroke-width:0.5;stroke-miterlimit:4;stroke-dasharray:none;stroke-opacity:1"
       id="path3558"
       sodipodi:cx="297.85938"
       sodipodi:cy="506.83093"
       sodipodi:rx="4.984375"
       sodipodi:ry="2.875"
       d="M 302.84375,506.83093 A 4.984375,2.875 0 1 1 292.875,506.83093 A 4.984375,2.875 0 1 1 302.84375,506.83093 z"
       transform="matrix(0.8447558,0,0,1.2994288,46.105701,-152.76098)" />
    <path
       sodipodi:type="arc"
       style="opacity:1;fill:#ffffff;fill-opacity:1;stroke:#000000;stroke-width:0.5;stroke-miterlimit:4;stroke-dasharray:none;stroke-opacity:1"
       id="path3555"
       sodipodi:cx="297.85938"
       sodipodi:cy="506.83093"
       sodipodi:rx="4.984375"
       sodipodi:ry="2.875"
       d="M 302.84375,506.83093 A 4.984375,2.875 0 1 1 292.875,506.83093 A 4.984375,2.875 0 1 1 302.84375,506.83093 z"
       transform="matrix(0.9356089,0,0,1.4803719,18.978186,-244.55502)" />
    <path
       style="fill:#ffffff;fill-opacity:1;stroke:#000000;stroke-width:0.5;stroke-miterlimit:4;stroke-opacity:1"
       d="M 293.97411,501.80329 C 293.96623,501.11579 294.47411,500.74079 295.28661,500.36579 C 296.09911,499.99079 297.03661,501.05329 297.03661,501.05329 L 298.31786,501.05329 C 298.31786,501.05329 299.38036,499.99079 300.16161,500.36579 C 300.94286,500.74079 301.42894,501.04731 301.44286,501.80329 C 301.45678,502.55927 301.44286,510.95954 301.44286,510.95954 L 299.81328,512.16932 L 299.81328,507.87343 L 295.79161,507.91762 L 295.79161,512.08093 L 293.97411,510.95954 C 293.97411,510.95954 293.98199,502.49079 293.97411,501.80329 z"
       id="rect3521"
       sodipodi:nodetypes="czcczzccccccz" />
    <path
       style="fill:none;fill-rule:evenodd;stroke:#000000;stroke-width:0.6;stroke-linecap:butt;stroke-linejoin:miter;stroke-miterlimit:4;stroke-dasharray:none;stroke-opacity:1"
       d="M 294.0901,511.02019 C 294.0901,511.02019 293.51719,504.21534 297.80632,504.21534 C 302.09546,504.21534 301.39861,510.9833 301.39861,510.9833"
       id="path3561"
       sodipodi:nodetypes="czc" />
    <path
       style="fill:#ffffff;fill-opacity:1;stroke:#000000;stroke-width:0.6;stroke-miterlimit:4;stroke-opacity:1"
       d="M 296.38547,508.0112 L 299.27811,508.0112 L 299.30936,512.75552 L 296.38547,512.73989 L 296.38547,508.0112 z"
       id="rect3563"
       sodipodi:nodetypes="ccccc" />
    <rect
       style="opacity:1;fill:#ffffff;fill-opacity:1;stroke:#000000;stroke-width:0.5;stroke-miterlimit:4;stroke-dasharray:none;stroke-opacity:1"
       id="rect3570"
       width="0.47103131"
       height="1.8907782"
       x="293.59146"
       y="508.59708" />
    <rect
       style="opacity:1;fill:#ffffff;fill-opacity:1;stroke:#000000;stroke-width:0.5;stroke-miterlimit:4;stroke-dasharray:none;stroke-opacity:1"
       id="rect3572"
       width="0.47103131"
       height="1.8907782"
       x="301.53125"
       y="508.59708" />
    <path
       style="fill:#ffffff;fill-rule:evenodd;stroke:#000000;stroke-width:0.5;stroke-linecap:butt;stroke-linejoin:miter;stroke-opacity:1;fill-opacity:1;stroke-miterlimit:4;stroke-dasharray:none"
       d="M 297.15625,512.84655 L 297.78034,514.13428 L 298.42188,512.84655"
       id="path3580"
       sodipodi:nodetypes="ccc" />
  </g>
</svg>
