<svg viewBox="0 0 100 102" xmlns="http://www.w3.org/2000/svg">
  <line x1="50" y1="4" x2="50" y2="16" stroke="currentColor" stroke-width="1" vector-effect="non-scaling-stroke" />
  <line x1="50" y1="16" x2="76" y2="28" stroke="currentColor" stroke-width="1" vector-effect="non-scaling-stroke" />
  <line x1="50" y1="16" x2="24" y2="28" stroke="currentColor" stroke-width="1" vector-effect="non-scaling-stroke" />
  <line x1="50" y1="16" x2="50" y2="58" stroke="currentColor" stroke-width="1" vector-effect="non-scaling-stroke" />
  <line x1="76" y1="28" x2="24" y2="28" stroke="currentColor" stroke-width="1" vector-effect="non-scaling-stroke" />
  <line x1="76" y1="28" x2="76" y2="50" stroke="currentColor" stroke-width="1" vector-effect="non-scaling-stroke" />
  <line x1="76" y1="28" x2="50" y2="58" stroke="currentColor" stroke-width="1" vector-effect="non-scaling-stroke" />
  <line x1="24" y1="28" x2="24" y2="50" stroke="currentColor" stroke-width="1" vector-effect="non-scaling-stroke" />
  <line x1="24" y1="28" x2="50" y2="58" stroke="currentColor" stroke-width="1" vector-effect="non-scaling-stroke" />
  <line x1="76" y1="50" x2="24" y2="50" stroke="currentColor" stroke-width="1" vector-effect="non-scaling-stroke" />
  <line x1="76" y1="50" x2="50" y2="58" stroke="currentColor" stroke-width="1" vector-effect="non-scaling-stroke" />
  <line x1="76" y1="50" x2="76" y2="76" stroke="currentColor" stroke-width="1" vector-effect="non-scaling-stroke" />
  <line x1="24" y1="50" x2="50" y2="58" stroke="currentColor" stroke-width="1" vector-effect="non-scaling-stroke" />
  <line x1="24" y1="50" x2="24" y2="76" stroke="currentColor" stroke-width="1" vector-effect="non-scaling-stroke" />
  <line x1="50" y1="58" x2="76" y2="76" stroke="currentColor" stroke-width="1" vector-effect="non-scaling-stroke" />
  <line x1="50" y1="58" x2="24" y2="76" stroke="currentColor" stroke-width="1" vector-effect="non-scaling-stroke" />
  <line x1="50" y1="58" x2="50" y2="84" stroke="currentColor" stroke-width="1" vector-effect="non-scaling-stroke" />
  <line x1="76" y1="76" x2="24" y2="76" stroke="currentColor" stroke-width="1" vector-effect="non-scaling-stroke" />
  <line x1="76" y1="76" x2="50" y2="84" stroke="currentColor" stroke-width="1" vector-effect="non-scaling-stroke" />
  <line x1="76" y1="76" x2="50" y2="98" stroke="currentColor" stroke-width="1" vector-effect="non-scaling-stroke" />
  <line x1="24" y1="76" x2="50" y2="84" stroke="currentColor" stroke-width="1" vector-effect="non-scaling-stroke" />
  <line x1="24" y1="76" x2="50" y2="98" stroke="currentColor" stroke-width="1" vector-effect="non-scaling-stroke" />
  <line x1="50" y1="84" x2="50" y2="98" stroke="currentColor" stroke-width="1" vector-effect="non-scaling-stroke" />
  <circle cx="50" cy="4" r="2.2" fill="none" stroke="currentColor" stroke-width="1" vector-effect="non-scaling-stroke" />
  <circle cx="50" cy="16" r="4" fill="none" stroke="currentColor" stroke-width="1" vector-effect="non-scaling-stroke" />
  <circle cx="76" cy="28" r="4" fill="none" stroke="currentColor" stroke-width="1" vector-effect="non-scaling-stroke" />
  <circle cx="24" cy="28" r="4" fill="none" stroke="currentColor" stroke-width="1" vector-effect="non-scaling-stroke" />
  <circle cx="76" cy="50" r="4" fill="none" stroke="currentColor" stroke-width="1" vector-effect="non-scaling-stroke" />
  <circle cx="24" cy="50" r="4" fill="none" stroke="currentColor" stroke-width="1" vector-effect="non-scaling-stroke" />
  <circle cx="50" cy="58" r="4" fill="none" stroke="currentColor" stroke-width="1" vector-effect="non-scaling-stroke" />
  <circle cx="76" cy="76" r="4" fill="none" stroke="currentColor" stroke-width="1" vector-effect="non-scaling-stroke" />
  <circle cx="24" cy="76" r="4" fill="none" stroke="currentColor" stroke-width="1" vector-effect="non-scaling-stroke" />
  <circle cx="50" cy="84" r="4" fill="none" stroke="currentColor" stroke-width="1" vector-effect="non-scaling-stroke" />
  <circle cx="50" cy="98" r="4" fill="none" stroke="currentColor" stroke-width="1" vector-effect="non-scaling-stroke" />
</svg>
